<?xml version="1.0" encoding="UTF-8"?>
<svg version="1.1" xmlns="http://www.w3.org/2000/svg" width="429" height="438">
<path d="M0 0 C141.57 0 283.14 0 429 0 C429 144.54 429 289.08 429 438 C287.43 438 145.86 438 0 438 C0 293.46 0 148.92 0 0 Z " fill="#10131B" transform="translate(0,0)"/>
<path d="M0 0 C1.58203125 1.24609375 1.58203125 1.24609375 2.33203125 3.26953125 C3.01084532 9.65462607 3.01084532 9.65462607 0.76953125 12.74609375 C-2.89842074 15.26126083 -5.10443388 15.35454594 -9.54296875 15.49609375 C-32.47985926 17.02365306 -52.89560959 29.72952753 -68.01025391 46.58837891 C-81.9284117 62.9783011 -92.0489691 81.53271699 -91.91796875 103.43359375 C-91.91156372 105.06953491 -91.91156372 105.06953491 -91.9050293 106.73852539 C-91.71105279 116.01581164 -90.03298188 123.74728851 -86.41796875 132.24609375 C-86.06863281 133.1484375 -85.71929687 134.05078125 -85.359375 134.98046875 C-82.45913891 141.65207413 -77.80867528 146.86604753 -73.0390625 152.265625 C-71.74162109 153.74095703 -71.74162109 153.74095703 -70.41796875 155.24609375 C-69.64453125 156.12394531 -68.87109375 157.00179687 -68.07421875 157.90625 C-66.41796875 160.24609375 -66.41796875 160.24609375 -66.48046875 163.87109375 C-67.42693717 167.27838005 -67.8015148 168.10972309 -70.41796875 170.24609375 C-72.3984375 171.16015625 -72.3984375 171.16015625 -74.60546875 171.87109375 C-75.32089844 172.11085938 -76.03632813 172.350625 -76.7734375 172.59765625 C-96.37864333 177.40484114 -116.10566536 174.40766313 -133.41796875 164.24609375 C-149.04586404 154.39372498 -161.32707058 139.08521231 -165.9987793 120.99731445 C-170.3685168 100.40268323 -167.92743843 80.44922954 -156.71484375 62.5703125 C-146.16954218 46.77544531 -129.45745302 34.90029458 -110.82421875 30.79296875 C-105.69108754 29.96884218 -100.5339513 29.42473185 -95.35473633 28.97924805 C-80.59330865 27.67170538 -66.60067075 22.6063671 -54.60546875 13.80859375 C-40.53531098 3.73663299 -17.56521581 -5.47671511 0 0 Z " fill="#F2FAFC" transform="translate(267.41796875,116.75390625)"/>
<path d="M0 0 C12.75809307 10.92042072 23.53781631 26.00719485 25.625 43.125 C26.60478618 56.29087677 27.26407421 69.9180629 21.625 82.125 C21.10421875 83.300625 20.5834375 84.47625 20.046875 85.6875 C12.90901873 101.18052136 1.84218412 113.2170535 -13.375 121.125 C-14.07882812 121.50269531 -14.78265625 121.88039063 -15.5078125 122.26953125 C-25.03260788 126.96163525 -35.50318605 128.11213784 -45.9375 129.0625 C-60.93963384 130.47541039 -73.75099394 135.42908417 -86.125 144.0625 C-93.08693009 148.8540001 -100.57865899 151.96547517 -108.375 155.125 C-109.25671875 155.49625 -110.1384375 155.8675 -111.046875 156.25 C-118.02560156 158.8728771 -125.42172406 159.35045378 -132.8125 159.5 C-133.49868408 159.52594238 -134.18486816 159.55188477 -134.8918457 159.57861328 C-138.26314797 159.5910888 -140.07637718 159.34574199 -142.81640625 157.3203125 C-145.09337791 154.11314941 -144.92286133 151.96002934 -144.375 148.125 C-142.50791495 145.76002561 -141.05438569 144.46469285 -138.375 143.125 C-136.33440884 143.01853437 -134.29232836 142.9401312 -132.25 142.875 C-113.41104547 141.62035651 -97.73042731 132.88899303 -83.375 121.125 C-82.36953125 120.33222656 -81.3640625 119.53945313 -80.328125 118.72265625 C-77.13397292 115.91298544 -74.58587807 112.98363137 -72 109.625 C-71.52739746 109.01551514 -71.05479492 108.40603027 -70.56787109 107.77807617 C-54.85161149 87.17674569 -48.06418626 67.02296824 -50.375 41.125 C-52.82968509 25.7073712 -61.2604977 13.70409085 -71.8984375 2.7421875 C-74.60175513 -0.11463082 -75.27050368 -0.91363387 -75.6875 -4.75 C-75.375 -7.875 -75.375 -7.875 -73.9375 -10.0625 C-52.5676823 -25.17773691 -18.64187735 -14.21155465 0 0 Z " fill="#F3FBFD" transform="translate(300.375,162.875)"/>
<path d="M0 0 C13.97981015 -0.90386704 27.59464371 1.20837119 39 10 C39 10.66 39 11.32 39 12 C39.58136719 12.26039063 40.16273438 12.52078125 40.76171875 12.7890625 C49.98358177 17.77820305 56.25677715 28.21094393 59.32421875 37.94140625 C63.85463985 53.86238357 62.59614068 69.99381533 54.5390625 84.69921875 C51.49832017 89.244897 47.85150801 93.13545812 44 97 C43.37222656 97.65097656 42.74445313 98.30195313 42.09765625 98.97265625 C32.16367413 108.52860099 18.9163495 112.10058243 5.5 112.625 C4.67757812 112.66367187 3.85515625 112.70234375 3.0078125 112.7421875 C1.0055299 112.83531692 -0.99720262 112.91868985 -3 113 C-2.57589844 112.36835938 -2.15179688 111.73671875 -1.71484375 111.0859375 C13.45716599 87.94445451 21.66333209 62.18891237 15.97363281 34.34570312 C13.72221102 25.27502647 9.47904723 17.13354777 5 9 C4.46246094 8.00871094 3.92492187 7.01742187 3.37109375 5.99609375 C2.26660478 3.98535742 1.14764525 1.98630908 0 0 Z " fill="#11151D" transform="translate(249,163)"/>
<path d="M0 0 C-0.4125 0.6084375 -0.825 1.216875 -1.25 1.84375 C-15.92585221 24.1195971 -23.89852408 47.98642015 -19.28125 74.93359375 C-16.8968097 86.41385702 -12.58752858 96.940588 -6.33203125 106.84375 C-5.0922442 108.85067801 -4.01937713 110.87428466 -3 113 C-18.52012538 113.77278633 -33.15020374 110.96644202 -45.140625 100.296875 C-56.8998726 89.27449461 -63.96526948 76.10121129 -65.16796875 59.7109375 C-65.29421185 44.6122623 -61.14143725 31.35585306 -51 20 C-50.42765625 19.32324219 -49.8553125 18.64648438 -49.265625 17.94921875 C-38.87929156 6.51981336 -24.64863751 1.2019288 -9.52734375 0.1171875 C-6.34192431 -0.03051356 -3.18797596 -0.07084391 0 0 Z " fill="#11151D" transform="translate(180,162)"/>
<path d="M0 0 C4.66600275 3.93132225 8.67492825 8.37135196 12.5625 13.0625 C11.0775 13.5575 11.0775 13.5575 9.5625 14.0625 C8.5725 13.4025 7.5825 12.7425 6.5625 12.0625 C6.5625 11.4025 6.5625 10.7425 6.5625 10.0625 C5.5725 10.0625 4.5825 10.0625 3.5625 10.0625 C3.3459375 11.42375 3.3459375 11.42375 3.125 12.8125 C2.5625 16.0625 2.5625 16.0625 1.875 18.3125 C1.771875 18.89 1.66875 19.4675 1.5625 20.0625 C3.40438612 22.11520463 3.40438612 22.11520463 5.5625 23.0625 C7.96998293 28.1663638 9.40477173 32.57626186 10 38.125 C10.27976591 42.10580898 10.27976591 42.10580898 12.5625 45.0625 C12.82128906 47.41918945 12.82128906 47.41918945 12.828125 50.17578125 C12.83199219 51.6772168 12.83199219 51.6772168 12.8359375 53.20898438 C12.82820313 54.25376953 12.82046875 55.29855469 12.8125 56.375 C12.82410156 57.92477539 12.82410156 57.92477539 12.8359375 59.50585938 C12.82250667 64.74052693 12.68214771 69.17553444 10.5625 74.0625 C9.0775 73.5675 9.0775 73.5675 7.5625 73.0625 C7.706875 72.32386719 7.85125 71.58523437 8 70.82421875 C11.00559866 54.39778718 9.62992849 39.11982176 0.5703125 24.765625 C-2.92502136 20.05984478 -7.10459835 14.72895082 -12.4375 12.0625 C-12.4375 11.4025 -12.4375 10.7425 -12.4375 10.0625 C-13.0975 9.815 -13.7575 9.5675 -14.4375 9.3125 C-16.76010688 8.34474713 -18.8560859 7.30992609 -21.0625 6.125 C-30.69916573 1.32464599 -39.77474804 0.64221635 -50.4375 1.0625 C-49.84582031 2.00609375 -49.25414062 2.9496875 -48.64453125 3.921875 C-43.82505728 11.70686533 -39.41717952 19.35716179 -36.4375 28.0625 C-36.11910156 28.97128906 -35.80070312 29.88007813 -35.47265625 30.81640625 C-33.28101427 38.40130547 -33.16009641 45.83338478 -33.125 53.6875 C-33.11944092 54.73639404 -33.11388184 55.78528809 -33.1081543 56.8659668 C-33.29254494 76.94563534 -40.52594246 96.5973233 -53.4375 112.0625 C-42.7577022 111.80669646 -33.59237007 110.67312047 -23.4375 107.0625 C-22.10909935 106.71002221 -20.77747272 106.36805197 -19.4375 106.0625 C-21.44701048 109.73831248 -22.57068259 111.72600932 -26.546875 113.26953125 C-27.74828125 113.46933594 -28.9496875 113.66914063 -30.1875 113.875 C-30.83565674 113.9869873 -31.48381348 114.09897461 -32.15161133 114.21435547 C-38.42362372 115.2247838 -44.73307737 115.58813229 -51.07421875 115.8515625 C-53.7336913 116.01835869 -55.90269122 116.33826892 -58.4375 117.0625 C-59.0975 117.0625 -59.7575 117.0625 -60.4375 117.0625 C-60.4375 116.4025 -60.4375 115.7425 -60.4375 115.0625 C-59.7775 115.0625 -59.1175 115.0625 -58.4375 115.0625 C-57.7775 113.4125 -57.1175 111.7625 -56.4375 110.0625 C-55.7775 110.0625 -55.1175 110.0625 -54.4375 110.0625 C-54.4375 108.7425 -54.4375 107.4225 -54.4375 106.0625 C-52.9525 105.0725 -52.9525 105.0725 -51.4375 104.0625 C-45.420903 95.31108619 -42.29190642 85.16565569 -39.74389648 74.97607422 C-38.53193966 70.15693966 -38.53193966 70.15693966 -37.4375 69.0625 C-37.33746038 67.0488724 -37.30668931 65.03173513 -37.3046875 63.015625 C-37.30339844 61.778125 -37.30210937 60.540625 -37.30078125 59.265625 C-37.30658203 57.30882812 -37.30658203 57.30882812 -37.3125 55.3125 C-37.30863281 54.0234375 -37.30476563 52.734375 -37.30078125 51.40625 C-37.30271484 49.54226562 -37.30271484 49.54226562 -37.3046875 47.640625 C-37.30637939 45.92987793 -37.30637939 45.92987793 -37.30810547 44.18457031 C-37.42532903 41.35616493 -37.7902759 38.81207767 -38.4375 36.0625 C-40.9125 36.5575 -40.9125 36.5575 -43.4375 37.0625 C-43.4375 36.0725 -43.4375 35.0825 -43.4375 34.0625 C-44.0975 34.0625 -44.7575 34.0625 -45.4375 34.0625 C-46.71986341 37.90959023 -46.45251341 41.45262671 -46.31640625 45.44921875 C-46.29279526 46.26622757 -46.26918427 47.08323639 -46.24485779 47.92500305 C-46.16830782 50.53351593 -46.08424628 53.14172544 -46 55.75 C-45.94677063 57.51886538 -45.89403028 59.28774555 -45.84179688 61.05664062 C-45.71270441 65.39211906 -45.57687489 69.72734043 -45.4375 74.0625 C-46.0975 73.7325 -46.7575 73.4025 -47.4375 73.0625 C-48.4275 75.3725 -49.4175 77.6825 -50.4375 80.0625 C-51.4275 80.0625 -52.4175 80.0625 -53.4375 80.0625 C-53.2209375 79.258125 -53.004375 78.45375 -52.78125 77.625 C-47.98137973 57.35888108 -48.66053342 37.42046519 -58.5 18.875 C-62.25099563 12.81186073 -67.01723102 7.77394763 -71.9609375 2.6796875 C-74.66425513 -0.17713082 -75.33300368 -0.97613387 -75.75 -4.8125 C-75.4375 -7.9375 -75.4375 -7.9375 -74 -10.125 C-52.60132736 -25.2606465 -18.63967442 -14.25721662 0 0 Z " fill="#F3FBFD" transform="translate(300.4375,162.9375)"/>
<path d="M0 0 C0.99 0 1.98 0 3 0 C3.66 0 4.32 0 5 0 C4.53746272 4.23992503 3.9652495 8.297346 2.9375 12.4375 C1.07234401 20.62735789 2.13326777 27.90647566 4 36 C4.13277344 36.73734375 4.26554687 37.4746875 4.40234375 38.234375 C5.41301052 43.35508666 7.34832495 45.43961683 11 49 C11.4640625 50.6396875 11.4640625 50.6396875 11.9375 52.3125 C13.14756299 56.51213037 14.9926731 58.89554198 17.7578125 62.203125 C19 64 19 64 19 67 C18.34 67 17.68 67 17 67 C16.67 67.99 16.34 68.98 16 70 C15.01 70.99 15.01 70.99 14 72 C13.01 72 12.02 72 11 72 C9.31640625 70.171875 9.31640625 70.171875 7.5625 67.75 C5.7545554 65.2746933 4.04183059 63.04076967 1.84375 60.8984375 C-0.48531041 58.50029479 -0.97498148 56.14339013 -2 53 C-2.99 52.34 -3.98 51.68 -5 51 C-5 50.01 -5 49.02 -5 48 C-5.66 48 -6.32 48 -7 48 C-7.483059 46.60550891 -7.96125517 45.20933293 -8.4375 43.8125 C-8.83775391 42.64654297 -8.83775391 42.64654297 -9.24609375 41.45703125 C-11.23729469 34.96757325 -11.18348097 28.73588732 -11.1875 22 C-11.19974609 20.91976562 -11.21199219 19.83953125 -11.22460938 18.7265625 C-11.22654297 17.68242187 -11.22847656 16.63828125 -11.23046875 15.5625 C-11.23457764 14.61503906 -11.23868652 13.66757813 -11.24291992 12.69140625 C-10.98010344 9.77955809 -10.20448482 7.65037541 -9 5 C-8.71125 4.278125 -8.4225 3.55625 -8.125 2.8125 C-5.92715679 -0.72846961 -3.85750322 -1.28583441 0 0 Z " fill="#F3FBFD" transform="translate(111,196)"/>
<path d="M0 0 C1.75 0.09765625 1.75 0.09765625 4 1 C5.52512071 3.14172225 6.76853322 5.13675088 8 7.4375 C8.34957764 8.07421631 8.69915527 8.71093262 9.05932617 9.36694336 C11.7982306 14.4401486 14.22257595 19.50458263 16 25 C16.29777344 25.86625 16.59554688 26.7325 16.90234375 27.625 C19.10900873 35.27206021 19.28229092 42.70499161 19.3125 50.625 C19.31797852 51.67373291 19.32345703 52.72246582 19.32910156 53.80297852 C19.14631829 73.88235144 11.91113534 93.535329 -1 109 C9.6797978 108.74419646 18.84512993 107.61062047 29 104 C30.32840065 103.64752221 31.66002728 103.30555197 33 103 C30.99048952 106.67581248 29.86681741 108.66350932 25.890625 110.20703125 C24.68921875 110.40683594 23.4878125 110.60664063 22.25 110.8125 C21.60184326 110.9244873 20.95368652 111.03647461 20.28588867 111.15185547 C14.01387628 112.1622838 7.70442263 112.52563229 1.36328125 112.7890625 C-1.2961913 112.95585869 -3.46519122 113.27576892 -6 114 C-6.66 114 -7.32 114 -8 114 C-8 113.34 -8 112.68 -8 112 C-7.34 112 -6.68 112 -6 112 C-5.34 110.35 -4.68 108.7 -4 107 C-3.34 107 -2.68 107 -2 107 C-2 105.68 -2 104.36 -2 103 C-0.515 102.01 -0.515 102.01 1 101 C7.016597 92.24858619 10.14559358 82.10315569 12.69360352 71.91357422 C13.90556034 67.09443966 13.90556034 67.09443966 15 66 C15.28538127 61.52772963 15.23197982 57.04276604 15.25 52.5625 C15.270625 51.31533203 15.29125 50.06816406 15.3125 48.78320312 C15.34383839 41.32858338 14.69609517 34.97711206 12 28 C11.34 28 10.68 28 10 28 C10 27.01 10 26.02 10 25 C9.34 25 8.68 25 8 25 C8.33 23.68 8.66 22.36 9 21 C9.66 21 10.32 21 11 21 C11 20.34 11 19.68 11 19 C10.34 19 9.68 19 9 19 C8.37379084 17.60470871 7.74909369 16.20873879 7.125 14.8125 C6.75761719 13.99136719 6.39023438 13.17023438 6.01171875 12.32421875 C5.26699962 10.61337751 4.58431464 8.87520432 3.9375 7.125 C2.93915893 4.86209358 1.76844069 3.68805702 0 2 C0 1.34 0 0.68 0 0 Z " fill="#DAE9EF" transform="translate(248,166)"/>
<path d="M0 0 C14.36319624 3.88194493 25.71453946 13.79519845 35 25 C34.01 25.33 33.02 25.66 32 26 C31.01 25.34 30.02 24.68 29 24 C29 23.34 29 22.68 29 22 C28.01 22 27.02 22 26 22 C25.855625 22.9075 25.71125 23.815 25.5625 24.75 C25 28 25 28 24.3125 30.25 C24.209375 30.8275 24.10625 31.405 24 32 C25.84188612 34.05270463 25.84188612 34.05270463 28 35 C30.40748293 40.1038638 31.84227173 44.51376186 32.4375 50.0625 C32.71726591 54.04330898 32.71726591 54.04330898 35 57 C35.25878906 59.35668945 35.25878906 59.35668945 35.265625 62.11328125 C35.26949219 63.6147168 35.26949219 63.6147168 35.2734375 65.14648438 C35.26570313 66.19126953 35.25796875 67.23605469 35.25 68.3125 C35.26160156 69.86227539 35.26160156 69.86227539 35.2734375 71.44335938 C35.26000667 76.67802693 35.11964771 81.11303444 33 86 C32.01 85.67 31.02 85.34 30 85 C30.144375 84.26136719 30.28875 83.52273437 30.4375 82.76171875 C33.44309866 66.33528718 32.06742849 51.05732176 23.0078125 36.703125 C19.51247864 31.99734478 15.33290165 26.66645082 10 24 C10 23.34 10 22.68 10 22 C9.29875 21.731875 8.5975 21.46375 7.875 21.1875 C4.8350176 19.9318551 1.9272226 18.49764877 -1 17 C-1 16.67 -1 16.34 -1 16 C3.88083499 16.47851323 6.86873395 17.45768243 11 20 C14.19395026 20.71401232 14.19395026 20.71401232 17 21 C18.19595537 18.1628485 18.19595537 18.1628485 19 15 C16.77238918 11.65858377 15.25320771 10.83774831 11.75 9 C10.76902344 8.48179687 9.78804688 7.96359375 8.77734375 7.4296875 C5.8621496 5.92903903 2.94837539 4.43434478 0 3 C0 2.01 0 1.02 0 0 Z " fill="#EFF6F8" transform="translate(278,151)"/>
<path d="M0 0 C0.99 0.66 1.98 1.32 3 2 C3 2.66 3 3.32 3 4 C2.34 4 1.68 4 1 4 C0.87625 4.639375 0.7525 5.27875 0.625 5.9375 C0.315625 6.9584375 0.315625 6.9584375 0 8 C-0.99 8.495 -0.99 8.495 -2 9 C-1.67 9.66 -1.34 10.32 -1 11 C1.02463255 11.65213292 1.02463255 11.65213292 3 12 C3 11.34 3 10.68 3 10 C3.66 10 4.32 10 5 10 C5.33 10.66 5.66 11.32 6 12 C7.32 11.67 8.64 11.34 10 11 C10 15 10 15 8.6015625 16.89453125 C2.91617353 22.41138102 -3.36436141 28.45478714 -11 31 C-10.99097656 30.39671875 -10.98195313 29.7934375 -10.97265625 29.171875 C-11.06751913 26.61470177 -11.25666039 24.45386542 -12 22 C-14.22610045 19.96119166 -16.16328604 19.1862622 -19 18 C-18.34 17.484375 -17.68 16.96875 -17 16.4375 C-10.73977121 11.35106411 -5.11053005 6.26039931 0 0 Z " fill="#F0F9FB" transform="translate(300,251)"/>
<path d="M0 0 C2.31 0.66 4.62 1.32 7 2 C6.01 2.495 6.01 2.495 5 3 C5.76116551 4.15227823 6.53432693 5.2966386 7.3125 6.4375 C7.74175781 7.07558594 8.17101562 7.71367187 8.61328125 8.37109375 C10.0034052 10.2885684 10.0034052 10.2885684 13 11 C15.48135889 16.05815466 16.84398921 20.52977233 17.4375 26.0625 C17.71726591 30.04330898 17.71726591 30.04330898 20 33 C20.25878906 35.35668945 20.25878906 35.35668945 20.265625 38.11328125 C20.26949219 39.6147168 20.26949219 39.6147168 20.2734375 41.14648438 C20.26570313 42.19126953 20.25796875 43.23605469 20.25 44.3125 C20.25773437 45.34568359 20.26546875 46.37886719 20.2734375 47.44335938 C20.26000667 52.67802693 20.11964771 57.11303444 18 62 C16.515 61.505 16.515 61.505 15 61 C15.144375 60.26136719 15.28875 59.52273437 15.4375 58.76171875 C18.45732779 42.25752105 17.02760181 27.05575819 7.94921875 12.640625 C5.01779546 8.66939826 1.69440434 5.26259085 -2 2 C-1.34 1.34 -0.68 0.68 0 0 Z " fill="#DBE9F0" transform="translate(293,175)"/>
<path d="M0 0 C-3.2761872 3.2761872 -6.33670336 3.45991482 -10.73828125 3.81640625 C-13.52465913 4.04258891 -16.24987945 4.50638862 -19 5 C-18.67 7.31 -18.34 9.62 -18 12 C-6.04193659 14.13809563 6.3245951 10.69847571 18 8 C18.495 8.99 18.495 8.99 19 10 C9.27985289 14.34349307 0.16058655 16.14007295 -10.4375 16.375 C-11.46738037 16.41415527 -11.46738037 16.41415527 -12.51806641 16.45410156 C-15.88887499 16.46575086 -17.70176257 16.22045711 -20.44140625 14.1953125 C-22.71837791 10.98814941 -22.54786133 8.83502934 -22 5 C-20.13291495 2.63502561 -18.67938569 1.33969285 -16 0 C-13.67150455 -0.25681935 -11.33661347 -0.45741502 -9 -0.625 C-7.741875 -0.72039062 -6.48375 -0.81578125 -5.1875 -0.9140625 C-2 -1 -2 -1 0 0 Z " fill="#C8D9DF" transform="translate(178,306)"/>
<path d="M0 0 C0.66 0.66 1.32 1.32 2 2 C1.09121094 2.51046875 1.09121094 2.51046875 0.1640625 3.03125 C-17.25231375 13.1059538 -28.92899832 26.53969661 -40 43 C-40.66 42.67 -41.32 42.34 -42 42 C-40.125 34.25 -40.125 34.25 -39 32 C-37.02111039 31.27306096 -35.02045442 30.60183749 -33 30 C-33 28.68 -33 27.36 -33 26 C-32.34 26 -31.68 26 -31 26 C-30.835 25.319375 -30.67 24.63875 -30.5 23.9375 C-28.27360302 19.57747259 -24.7540933 17.05500702 -21 14 C-19.8955586 13.06282367 -18.79135756 12.12536394 -17.6875 11.1875 C-15 9 -15 9 -12 7 C-11.443125 6.360625 -10.88625 5.72125 -10.3125 5.0625 C-7.13616951 2.22955659 -4.02735906 1.34245302 0 0 Z " fill="#D3E1E7" transform="translate(226,139)"/>
<path d="M0 0 C2.0625 0.4375 2.0625 0.4375 4 1 C4 1.66 4 2.32 4 3 C-7.05150645 8.75964754 -18.78997555 10.06161905 -31.00317383 11.15625 C-37.21912378 11.77260346 -42.71776863 13.13206192 -48.62890625 15.1953125 C-51 16 -51 16 -53 16 C-52.359375 14.13671875 -52.359375 14.13671875 -51 12 C-48.390625 10.76953125 -48.390625 10.76953125 -45.25 9.8125 C-44.22390625 9.48894531 -43.1978125 9.16539062 -42.140625 8.83203125 C-36.11662096 7.23611973 -30.25675986 6.77758509 -24.0625 6.5 C-18.64359714 6.25594599 -13.35921515 5.85633265 -8 5 C-8 4.34 -8 3.68 -8 3 C-6.865625 2.690625 -5.73125 2.38125 -4.5625 2.0625 C-1.21224901 1.37075469 -1.21224901 1.37075469 0 0 Z " fill="#D2E2E8" transform="translate(283,281)"/>
<path d="M0 0 C0.33 0.66 0.66 1.32 1 2 C1.66 2 2.32 2 3 2 C5.54134405 12.06918008 6.50909808 21.48691082 6.6875 31.875 C6.72079599 33.25654009 6.75529614 34.6380517 6.79101562 36.01953125 C6.87243935 39.34627195 6.94192612 42.672784 7 46 C6.34 45.67 5.68 45.34 5 45 C4.01 47.31 3.02 49.62 2 52 C1.01 52 0.02 52 -1 52 C-0.7834375 51.195625 -0.566875 50.39125 -0.34375 49.5625 C3.18275812 34.67279907 4.37754943 17.59278427 -0.44140625 2.87890625 C-0.62574219 2.25886719 -0.81007812 1.63882813 -1 1 C-0.67 0.67 -0.34 0.34 0 0 Z " fill="#CBDBE0" transform="translate(248,191)"/>
<path d="M0 0 C0.33 0 0.66 0 1 0 C1.72549302 6.89218368 1.72549302 6.89218368 -0.23046875 9.87890625 C-1.25129254 11.00559324 -2.3047747 12.10390428 -3.39453125 13.1640625 C-5.16208967 15.02866857 -5.16208967 15.02866857 -6.39453125 17.80078125 C-8.19026429 21.37913979 -10.41605499 24.42789893 -12.875 27.5625 C-13.29652344 28.11357422 -13.71804687 28.66464844 -14.15234375 29.23242188 C-18.50323211 34.84067706 -23.5515627 39.55864099 -28.8125 44.3125 C-29.78832031 45.19550781 -30.76414063 46.07851563 -31.76953125 46.98828125 C-32.50558594 47.65214844 -33.24164063 48.31601562 -34 49 C-35.32 48.34 -36.64 47.68 -38 47 C-28 39 -28 39 -25.5 37.13671875 C-22.49348638 34.56708914 -20.09606193 31.67673058 -17.6875 28.5625 C-17.21111084 27.95067871 -16.73472168 27.33885742 -16.24389648 26.70849609 C-9.86914575 18.38355731 -4.46628391 9.4908533 0 0 Z " fill="#D0DDE3" transform="translate(246,244)"/>
<path d="M0 0 C2 1 2 1 2.68286133 2.8425293 C3.09909744 5.67415247 2.24115954 7.91228236 1.49365234 10.63134766 C0.52781784 15.2656337 0.75324608 19.97385054 0.8125 24.6875 C0.81894531 25.74517578 0.82539063 26.80285156 0.83203125 27.89257812 C0.90475616 35.29688281 1.19447114 42.63516475 2 50 C1.01 50.495 1.01 50.495 0 51 C-4.75771191 34.91440258 -5.25869745 16.0265065 0 0 Z " fill="#E0EEF6" transform="translate(162,195)"/>
<path d="M0 0 C0.66 0 1.32 0 2 0 C4.91257049 7.79109851 5.43145152 14.85549023 5.3125 23.125 C5.31572266 24.25292969 5.31894531 25.38085938 5.32226562 26.54296875 C5.28263078 32.7043857 4.80915189 38.10403885 3 44 C1 42 1 42 0.78881836 39.20947266 C0.80565674 38.0394873 0.82249512 36.86950195 0.83984375 35.6640625 C0.85080078 34.37113281 0.86175781 33.07820313 0.87304688 31.74609375 C0.89377165 30.37238416 0.91525999 28.99868589 0.9375 27.625 C1.06688476 18.35205079 0.98251745 9.23023577 0 0 Z " fill="#D7E7EC" transform="translate(321,196)"/>
<path d="M0 0 C2.50197145 3.75295718 1.95853991 4.74558649 1.125 9.0625 C-0.97439317 21.63123543 1.01078902 31.74957286 4 44 C2.68 43.67 1.36 43.34 0 43 C-0.47899526 40.87873526 -0.95576429 38.75694559 -1.421875 36.6328125 C-1.79856805 34.91733199 -2.18358204 33.20365088 -2.578125 31.4921875 C-5.11415415 19.93514038 -3.29372775 11.1604436 0 0 Z " fill="#D8E7ED" transform="translate(116,198)"/>
<path d="M0 0 C-2 2 -2 2 -5.15234375 2.23046875 C-6.40144531 2.21628906 -7.65054687 2.20210937 -8.9375 2.1875 C-10.80728516 2.17783203 -10.80728516 2.17783203 -12.71484375 2.16796875 C-16 2 -16 2 -19 1 C-20.55178929 0.78816292 -22.10888672 0.61380063 -23.66796875 0.46484375 C-24.56064453 0.37783203 -25.45332031 0.29082031 -26.37304688 0.20117188 C-27.30181641 0.11416016 -28.23058594 0.02714844 -29.1875 -0.0625 C-30.12787109 -0.15337891 -31.06824219 -0.24425781 -32.03710938 -0.33789062 C-34.3577922 -0.56171283 -36.67873689 -0.78229246 -39 -1 C-39 -1.33 -39 -1.66 -39 -2 C-25.69391664 -3.86435518 -12.9549099 -3.84527361 0 0 Z " fill="#DCEEF0" transform="translate(277,150)"/>
<path d="M0 0 C-0.33 0.99 -0.66 1.98 -1 3 C-1.99 3 -2.98 3 -4 3 C-7.71676179 3.36664609 -11.4194924 3.84699561 -15.125 4.3125 C-16.63707031 4.48942383 -16.63707031 4.48942383 -18.1796875 4.66992188 C-24.42788639 5.45904026 -30.1182307 6.73671295 -36 9 C-36.33 8.01 -36.66 7.02 -37 6 C-25.1165954 0.91064169 -12.8546261 -0.4810463 0 0 Z " fill="#DAE8F0" transform="translate(184,159)"/>
<path d="M0 0 C0.66 0.33 1.32 0.66 2 1 C-2 12 -2 12 -6 14 C-7.06103147 16.7774059 -7.92367568 19.59436659 -8.8046875 22.43359375 C-10 25 -10 25 -12.1328125 26.34765625 C-12.74898437 26.56292969 -13.36515625 26.77820313 -14 27 C-14.33 26.34 -14.66 25.68 -15 25 C-13.9175822 22.39919055 -12.77689681 19.94130834 -11.5 17.4375 C-11.13777344 16.71820313 -10.77554688 15.99890625 -10.40234375 15.2578125 C-7.51425729 9.67283694 -4.18666342 4.70999635 0 0 Z " fill="#D2DEE5" transform="translate(180,162)"/>
<path d="M0 0 C2.75026417 -0.05404449 5.49946203 -0.09369306 8.25 -0.125 C9.02730469 -0.14175781 9.80460937 -0.15851563 10.60546875 -0.17578125 C18.31552006 -0.24167912 18.31552006 -0.24167912 21 2 C22.09664995 4.95867018 22.25105255 7.86463255 22 11 C20.15014823 13.55151968 18.7804657 14.60976715 16 16 C13.7927077 16.07092842 11.58332548 16.08415025 9.375 16.0625 C8.18648438 16.05347656 6.99796875 16.04445312 5.7734375 16.03515625 C4.85820312 16.02355469 3.94296875 16.01195312 3 16 C2.67 15.34 2.34 14.68 2 14 C7.28 13.34 12.56 12.68 18 12 C18 9.03 18 6.06 18 3 C12.06 2.34 6.12 1.68 0 1 C0 0.67 0 0.34 0 0 Z " fill="#C7D7DD" transform="translate(248,116)"/>
<path d="M0 0 C0.66 0.33 1.32 0.66 2 1 C2 1.66 2 2.32 2 3 C1.34 3 0.68 3 0 3 C-0.33 3.99 -0.66 4.98 -1 6 C-0.67 6.33 -0.34 6.66 0 7 C0.144375 7.804375 0.28875 8.60875 0.4375 9.4375 C1.17117205 12.7797838 2.55799962 13.66849972 5.25 15.6875 C9.38097481 19.16127427 13.30576173 22.66934296 14.875 27.9375 C14.91625 28.618125 14.9575 29.29875 15 30 C14.01 30 13.02 30 12 30 C11.01561517 28.59793376 10.04186982 27.18632193 9.14208984 25.72851562 C7.19430145 22.78060159 4.73784767 20.30705529 2.3125 17.75 C-3.87054167 11.19101659 -3.87054167 11.19101659 -4.3125 7.125 C-4 4 -4 4 -2 1.625 C-1.34 1.08875 -0.68 0.5525 0 0 Z " fill="#D3E3EC" transform="translate(229,151)"/>
<path d="M0 0 C0.66 0 1.32 0 2 0 C3.4375 1.828125 3.4375 1.828125 5 4.25 C5.515625 5.03890625 6.03125 5.8278125 6.5625 6.640625 C7.82983586 8.72070886 8.9519458 10.80311715 10 13 C10.66 13 11.32 13 12 13 C12.24492188 13.72960937 12.48984375 14.45921875 12.7421875 15.2109375 C14.53170927 19.17900752 17.3341538 21.80038101 20.3203125 24.9140625 C22 27 22 27 22 30 C12.56268395 25.92859153 6.65400596 14.7071426 2 6 C1.28357415 4.01728004 0.59994236 2.02101796 0 0 Z " fill="#D3E1E7" transform="translate(104,244)"/>
<path d="M0 0 C-1.1217963 1.7936743 -2.24754483 3.5848773 -3.375 5.375 C-4.31472656 6.87160156 -4.31472656 6.87160156 -5.2734375 8.3984375 C-7 11 -7 11 -9 13 C-9.66 12.67 -10.32 12.34 -11 12 C-11.40729228 9.67843403 -11.74438677 7.3431213 -12 5 C-13.65 5 -15.3 5 -17 5 C-16.67 4.34 -16.34 3.68 -16 3 C-16.66 2.34 -17.32 1.68 -18 1 C-11.97968656 0.39034801 -6.05329744 -0.13451772 0 0 Z " fill="#141E27" transform="translate(180,162)"/>
<path d="M0 0 C0 0.99 0 1.98 0 3 C-0.99 3 -1.98 3 -3 3 C-2.34 3.66 -1.68 4.32 -1 5 C-3.475 6.485 -3.475 6.485 -6 8 C-5.34 8.66 -4.68 9.32 -4 10 C-4.99 10.66 -5.98 11.32 -7 12 C-5.68 12.66 -4.36 13.32 -3 14 C-7.95 15.485 -7.95 15.485 -13 17 C-12.34 15.02 -11.68 13.04 -11 11 C-11.99 11 -12.98 11 -14 11 C-14 10.34 -14 9.68 -14 9 C-14.66 8.34 -15.32 7.68 -16 7 C-13.71070947 5.82845707 -11.41881638 4.66261926 -9.125 3.5 C-8.47402344 3.16613281 -7.82304687 2.83226562 -7.15234375 2.48828125 C-2.2265625 0 -2.2265625 0 0 0 Z " fill="#141B23" transform="translate(238,136)"/>
<path d="M0 0 C1.97764468 2.45892989 3.9415887 4.92367263 5.859375 7.4296875 C10.12297963 12.9441844 14.5643447 17.63412792 20 22 C18.02 22.99 18.02 22.99 16 24 C12 20 12 20 10.4375 18.3125 C8.91856078 16.74722111 8.91856078 16.74722111 6 16 C6.33 15.01 6.66 14.02 7 13 C5.68 13 4.36 13 3 13 C3.33 11.35 3.66 9.7 4 8 C3.01 7.67 2.02 7.34 1 7 C1 6.34 1 5.68 1 5 C-0.65 6.32 -2.3 7.64 -4 9 C-3.67 7.35 -3.34 5.7 -3 4 C-2.34 4 -1.68 4 -1 4 C-0.67 2.68 -0.34 1.36 0 0 Z " fill="#101920" transform="translate(109,255)"/>
<path d="M0 0 C-2.4697553 1.61171825 -3.57226145 2.07813181 -6.5234375 1.5390625 C-7.46445312 1.23742187 -8.40546875 0.93578125 -9.375 0.625 C-15.96007974 -1.20779313 -25.60876096 -3.19561952 -32 0 C-32.33 -1.32 -32.66 -2.64 -33 -4 C-22.24308614 -7.58563795 -9.95753675 -4.66097465 0 0 Z " fill="#D0E0E6" transform="translate(280,165)"/>
<path d="M0 0 C0.33 0 0.66 0 1 0 C2.07586921 12.43013182 2.07586921 12.43013182 2 17.4375 C1.90371227 24.83789961 1.90256379 32.86166668 4 40 C3.34 40 2.68 40 2 40 C-2.27057048 28.40845157 -3.46984397 11.91846205 0 0 Z " fill="#DCEBEF" transform="translate(101,202)"/>
<path d="M0 0 C0 0.66 0 1.32 0 2 C-4.24147181 5.23894211 -8.9601532 6.23016351 -14.0625 7.375 C-14.86494141 7.57738281 -15.66738281 7.77976563 -16.49414062 7.98828125 C-22.39971003 9.33112442 -22.39971003 9.33112442 -25.30859375 7.7265625 C-25.86675781 7.15679687 -26.42492187 6.58703125 -27 6 C-28.31925109 5.30588273 -29.65135717 4.63512577 -31 4 C-29.73285156 3.87882813 -28.46570313 3.75765625 -27.16015625 3.6328125 C-25.46090914 3.4638266 -23.76169195 3.29453963 -22.0625 3.125 C-21.23169922 3.04636719 -20.40089844 2.96773437 -19.54492188 2.88671875 C-14.55913029 2.3823196 -9.77437141 1.60115574 -4.90795898 0.39794922 C-3 0 -3 0 0 0 Z " fill="#D3E0E6" transform="translate(191,143)"/>
<path d="M0 0 C0.66 0.66 1.32 1.32 2 2 C1.60167969 2.81082031 1.20335937 3.62164062 0.79296875 4.45703125 C-2.59010231 11.52773208 -5.25352354 18.3553355 -7 26 C-7.66 26 -8.32 26 -9 26 C-8.76681947 23.345711 -8.52804661 20.69212603 -8.28125 18.0390625 C-8.10539475 16.13884879 -7.93742043 14.2378702 -7.78125 12.3359375 C-7.22379032 6.22379032 -7.22379032 6.22379032 -5 4 C-4.34 4 -3.68 4 -3 4 C-2.67 3.34 -2.34 2.68 -2 2 C-1.34 2 -0.68 2 0 2 C0 1.34 0 0.68 0 0 Z " fill="#DDECF0" transform="translate(183,182)"/>
<path d="M0 0 C9.67016795 2.61355891 18.58904374 8.35758735 26 15 C26 15.33 26 15.66 26 16 C23.69 16 21.38 16 19 16 C18.77828125 15.40316406 18.5565625 14.80632812 18.328125 14.19140625 C16.58053206 11.3078779 14.7346147 10.46650343 11.75 8.9375 C10.76902344 8.42832031 9.78804688 7.91914063 8.77734375 7.39453125 C7.86082031 6.93433594 6.94429688 6.47414062 6 6 C5.32066406 5.65324219 4.64132812 5.30648437 3.94140625 4.94921875 C2.63360744 4.28747883 1.31799689 3.64118768 0 3 C0 2.01 0 1.02 0 0 Z " fill="#D9E6EB" transform="translate(278,151)"/>
<path d="M0 0 C-2.90218456 2.35802496 -5.84966229 4.6170701 -8.875 6.8125 C-14.69794344 11.16322755 -19.61069039 16.20611132 -24 22 C-25 19 -25 19 -24 16 C-23.01 15.67 -22.02 15.34 -21 15 C-20.505 14.34 -20.01 13.68 -19.5 13 C-18 11 -18 11 -15 10 C-14.71125 9.236875 -14.4225 8.47375 -14.125 7.6875 C-12.35880394 3.46825386 -9.37616831 1.68808416 -5.375 -0.3125 C-3 -1 -3 -1 0 0 Z " fill="#D1DEE3" transform="translate(147,168)"/>
<path d="M0 0 C4.44870215 -0.39253254 7.14243493 0.84694043 11 3 C11 3.66 11 4.32 11 5 C11.99 5.268125 12.98 5.53625 14 5.8125 C18.09612784 6.976839 22.02843633 8.46711578 26 10 C26 10.99 26 11.98 26 13 C16.5616297 11.18492879 7.68159216 6.76119412 0 1 C0 0.67 0 0.34 0 0 Z " fill="#D2E0E7" transform="translate(128,276)"/>
<path d="M0 0 C0.66 0.99 1.32 1.98 2 3 C-0.04208992 10.7274539 -4.30650074 17.61297008 -9 24 C-9.66 23.01 -10.32 22.02 -11 21 C-10.525625 20.236875 -10.05125 19.47375 -9.5625 18.6875 C-7.89893903 16.03589452 -7.89893903 16.03589452 -7 13 C-6.34 13 -5.68 13 -5 13 C-4.89042969 12.36191406 -4.78085937 11.72382813 -4.66796875 11.06640625 C-4.50941406 10.24011719 -4.35085938 9.41382813 -4.1875 8.5625 C-4.03667969 7.73878906 -3.88585937 6.91507813 -3.73046875 6.06640625 C-3.36888672 5.04353516 -3.36888672 5.04353516 -3 4 C-2.01 3.67 -1.02 3.34 0 3 C0 2.01 0 1.02 0 0 Z " fill="#DEEEF1" transform="translate(321,239)"/>
<path d="M0 0 C0.99 0 1.98 0 3 0 C3.06058594 1.30195313 3.12117187 2.60390625 3.18359375 3.9453125 C3.26804562 5.67188399 3.35269126 7.398446 3.4375 9.125 C3.47681641 9.9809375 3.51613281 10.836875 3.55664062 11.71875 C3.78156402 16.21721792 4.13540883 20.56806207 5 25 C4.01 25.33 3.02 25.66 2 26 C1.77213542 23.94921875 1.54427083 21.8984375 1.31640625 19.84765625 C1.18113386 17.98859771 1.18113386 17.98859771 0 17 C-0.07325168 14.13732433 -0.09238205 11.299281 -0.0625 8.4375 C-0.05798828 7.63119141 -0.05347656 6.82488281 -0.04882812 5.99414062 C-0.03700518 3.99606244 -0.01906914 1.99802217 0 0 Z " fill="#CEDDE8" transform="translate(172,214)"/>
<path d="M0 0 C0.66 0.66 1.32 1.32 2 2 C-7.04250454 5.8421709 -15.07854959 7.91894125 -25 7 C-25.99 6.34 -26.98 5.68 -28 5 C-27.06800781 4.89042969 -26.13601562 4.78085937 -25.17578125 4.66796875 C-17.44342523 3.70631072 -10.05387217 2.43155213 -2.51171875 0.390625 C-1.68285156 0.26171875 -0.85398438 0.1328125 0 0 Z " fill="#DEECF1" transform="translate(195,314)"/>
<path d="M0 0 C2.08962236 3.13443354 2.25367554 3.87003692 2.1875 7.4375 C2.18105469 8.19933594 2.17460937 8.96117187 2.16796875 9.74609375 C1.89672227 13.38584306 1.62669759 15.37330241 -1 18 C-1.7266797 16.09021367 -2.43075588 14.17181485 -3.125 12.25 C-3.51945312 11.18265625 -3.91390625 10.1153125 -4.3203125 9.015625 C-5 6 -5 6 -4.3046875 3.734375 C-3 2 -3 2 0 0 Z " fill="#12161F" transform="translate(325,184)"/>
<path d="M0 0 C3.52601721 2.26026745 4.83417427 3.38091728 5.9375 7.5 C6.00002979 11.00166796 5.91925041 12.19360363 4 15 C1.8359375 16.046875 1.8359375 16.046875 -0.625 16.75 C-1.85089844 17.11351562 -1.85089844 17.11351562 -3.1015625 17.484375 C-3.72804687 17.65453125 -4.35453125 17.8246875 -5 18 C-5 17.01 -5 16.02 -5 15 C-4.1028125 14.87625 -4.1028125 14.87625 -3.1875 14.75 C-0.29313769 13.75764721 0.57987775 12.69075795 2 10 C1.81931089 7.51176074 1.81931089 7.51176074 1 5 C0.5 2.5 0.5 2.5 0 0 Z " fill="#CDDEE3" transform="translate(195,271)"/>
<path d="M0 0 C7.26 0.66 14.52 1.32 22 2 C21.67 2.99 21.34 3.98 21 5 C17.04 5 13.08 5 9 5 C9 5.66 9 6.32 9 7 C8.01 7 7.02 7 6 7 C6 6.34 6 5.68 6 5 C4.68 4.67 3.36 4.34 2 4 C2 3.34 2 2.68 2 2 C1.34 2 0.68 2 0 2 C0 1.34 0 0.68 0 0 Z " fill="#D8E7ED" transform="translate(155,273)"/>
<path d="M0 0 C-4.30366848 5.77921196 -4.30366848 5.77921196 -7.5625 6.8125 C-8.7690625 6.9053125 -8.7690625 6.9053125 -10 7 C-10.70125 7.20625 -11.4025 7.4125 -12.125 7.625 C-14 8 -14 8 -17 7 C-12.56298124 2.99237015 -6.08324024 -2.02774675 0 0 Z " fill="#131D26" transform="translate(237,296)"/>
<path d="M0 0 C1.65 0.33 3.3 0.66 5 1 C1.902645 3.59778161 -1.31455642 5.99572953 -4.625 8.3125 C-5.75808594 9.11107422 -5.75808594 9.11107422 -6.9140625 9.92578125 C-7.94660156 10.45751953 -7.94660156 10.45751953 -9 11 C-9.99 10.67 -10.98 10.34 -12 10 C-12 9.34 -12 8.68 -12 8 C-11.34 8 -10.68 8 -10 8 C-9.67 7.01 -9.34 6.02 -9 5 C-6.95339181 4.29427304 -4.94407466 3.9904128 -2.8125 3.625 C-1.9153125 3.315625 -1.9153125 3.315625 -1 3 C-0.67 2.01 -0.34 1.02 0 0 Z " fill="#D5E2E7" transform="translate(217,300)"/>
<path d="M0 0 C-3.32588996 2.87310791 -6.55462692 3.97084181 -10.75 5.1875 C-11.92046875 5.53167969 -13.0909375 5.87585938 -14.296875 6.23046875 C-15.63492188 6.61138672 -15.63492188 6.61138672 -17 7 C-17.66 6.01 -18.32 5.02 -19 4 C-16.58732675 3.132758 -14.17095531 2.28103064 -11.75 1.4375 C-11.06808594 1.19064453 -10.38617188 0.94378906 -9.68359375 0.68945312 C-3.41657839 -1.47053761 -3.41657839 -1.47053761 0 0 Z " fill="#D3E2E9" transform="translate(248,118)"/>
<path d="M0 0 C0 1.32 0 2.64 0 4 C-1.9375 4.5625 -1.9375 4.5625 -4 5 C-4.33 4.67 -4.66 4.34 -5 4 C-8.62793998 5.86566488 -8.62793998 5.86566488 -11 9 C-13.97 8.505 -13.97 8.505 -17 8 C-14.51259818 5.21007634 -11.75781143 3.55405687 -8.5 1.75 C-7.5409375 1.20859375 -6.581875 0.6671875 -5.59375 0.109375 C-3 -1 -3 -1 0 0 Z " fill="#121A21" transform="translate(219,306)"/>
<path d="M0 0 C1.734375 0.06640625 1.734375 0.06640625 4 1 C5.59765336 3.30610184 6.93530589 5.48096971 8.25 7.9375 C8.61351562 8.58396484 8.97703125 9.23042969 9.3515625 9.89648438 C12 14.69055451 12 14.69055451 12 17 C10.1875 16.875 10.1875 16.875 8 16 C6.33364361 13.18001226 5.140728 10.3782065 4 7.3125 C2.96948273 4.92942882 1.85022669 3.76612548 0 2 C0 1.34 0 0.68 0 0 Z " fill="#D8E3EA" transform="translate(248,166)"/>
<path d="M0 0 C-0.95080968 3.26389054 -1.65799758 4.74611414 -4.42578125 6.80078125 C-5.37839844 7.29964844 -6.33101562 7.79851562 -7.3125 8.3125 C-8.25738281 8.82425781 -9.20226562 9.33601562 -10.17578125 9.86328125 C-13.04261641 11.01715266 -14.94737007 11.23909488 -18 11 C-14.56662594 8.17325123 -11.06054842 5.6430241 -7.3125 3.25 C-6.35988281 2.63640625 -5.40726563 2.0228125 -4.42578125 1.390625 C-2 0 -2 0 0 0 Z " fill="#CCDCE1" transform="translate(222,126)"/>
<path d="M0 0 C1 2 1 2 0.875 3.8125 C-0.38323797 6.95809494 -2.56027767 8.67117414 -5 11 C-6.7140168 12.96484852 -8.35363611 14.97732437 -10 17 C-10.66 16.34 -11.32 15.68 -12 15 C-8.59008792 9.45889287 -4.38579957 4.79031507 0 0 Z " fill="#D2E0E6" transform="translate(122,166)"/>
<path d="M0 0 C0.99 0 1.98 0 3 0 C4.69832609 5.83799592 5.25287193 10.93107371 5 17 C4.01 16.67 3.02 16.34 2 16 C1.34 10.72 0.68 5.44 0 0 Z " fill="#CAD9E1" transform="translate(262,196)"/>
<path d="M0 0 C0.99 0.66 1.98 1.32 3 2 C2.46972205 6.5073626 0.80388725 9.4539073 -2 13 C-2.99 13 -3.98 13 -5 13 C-4.54803755 11.39402675 -4.08817673 9.79027492 -3.625 8.1875 C-3.36976563 7.29417969 -3.11453125 6.40085938 -2.8515625 5.48046875 C-2 3 -2 3 0 0 Z " fill="#151E25" transform="translate(324,239)"/>
<path d="M0 0 C0.82242187 0.00451172 1.64484375 0.00902344 2.4921875 0.01367188 C4.49482396 0.02531511 6.49742227 0.04324444 8.5 0.0625 C8.5 0.3925 8.5 0.7225 8.5 1.0625 C6.7984375 1.2790625 6.7984375 1.2790625 5.0625 1.5 C1.69222799 1.67421478 1.69222799 1.67421478 0.5 3.0625 C-5.52866847 3.38127874 -11.58684508 3.37653443 -17.5 2.0625 C-17.5 1.7325 -17.5 1.4025 -17.5 1.0625 C-11.61599345 0.20554033 -5.94090708 -0.06289234 0 0 Z " fill="#C9DADD" transform="translate(255.5,146.9375)"/>
<path d="M0 0 C0.66787522 1.33272837 1.33424861 2.66620942 2 4 C2.54720703 5.08087891 2.54720703 5.08087891 3.10546875 6.18359375 C6.05490838 12.32737233 6.05490838 12.32737233 5.75 16.0625 C5.5025 16.701875 5.255 17.34125 5 18 C1.01537879 14.94512374 0.13681943 11.93021805 -0.76171875 7.1953125 C-1.04289367 4.60481569 -0.79990285 2.47969884 0 0 Z " fill="#CEDCE3" transform="translate(177,240)"/>
<path d="M0 0 C0.66 0 1.32 0 2 0 C3.91539047 4.96260257 5.60961435 9.86626838 7 15 C6.34 15.66 5.68 16.32 5 17 C4.18325204 15.25197854 3.37176549 13.50149811 2.5625 11.75 C2.11003906 10.77546875 1.65757812 9.8009375 1.19140625 8.796875 C0.2097926 6.49249674 -0.61239191 4.46758956 -1 2 C-0.67 1.34 -0.34 0.68 0 0 Z " fill="#DBECF0" transform="translate(164,246)"/>
<path d="M0 0 C0.66 0 1.32 0 2 0 C4.52686664 6.83824362 5.27766314 11.79862595 4 19 C3.67 19 3.34 19 3 19 C0.86608597 12.74051886 0.41044485 6.57791873 0 0 Z " fill="#CFDEE4" transform="translate(321,196)"/>
<path d="M0 0 C-0.99 0.495 -0.99 0.495 -2 1 C-0.9790625 2.11375 -0.9790625 2.11375 0.0625 3.25 C2 6 2 6 1.75 8.3125 C1.5025 8.869375 1.255 9.42625 1 10 C-2.59634744 6.50640535 -5.83451967 2.88901869 -9 -1 C-5.79937313 -2.60031344 -3.27728194 -1.03173691 0 0 Z " fill="#CDDBDF" transform="translate(300,177)"/>
<path d="M0 0 C-1.32 0.33 -2.64 0.66 -4 1 C-4 1.66 -4 2.32 -4 3 C-8.62 4.32 -13.24 5.64 -18 7 C-18.33 6.01 -18.66 5.02 -19 4 C-12.44995746 1.30292366 -7.11513755 -0.53699151 0 0 Z " fill="#D1DEE5" transform="translate(166,161)"/>
<path d="M0 0 C0.66 0.33 1.32 0.66 2 1 C0.25626032 4.01191399 -1.11847904 5.72504283 -4.4921875 6.77734375 C-6.99049108 7.26214204 -9.47590991 7.67726329 -12 8 C-12 7.34 -12 6.68 -12 6 C-12.99 5.67 -13.98 5.34 -15 5 C-14.08476562 4.72285156 -13.16953125 4.44570313 -12.2265625 4.16015625 C-11.03804688 3.79792969 -9.84953125 3.43570312 -8.625 3.0625 C-7.44164062 2.70285156 -6.25828125 2.34320313 -5.0390625 1.97265625 C-2.12073182 1.12423726 -2.12073182 1.12423726 0 0 Z " fill="#D3E0E9" transform="translate(279,269)"/>
<path d="M0 0 C2.9156164 3.54039134 5.50127818 7.1626772 8 11 C7.67 11.66 7.34 12.32 7 13 C5.68 13 4.36 13 3 13 C3.33 11.35 3.66 9.7 4 8 C3.01 7.67 2.02 7.34 1 7 C1 6.34 1 5.68 1 5 C-0.65 6.32 -2.3 7.64 -4 9 C-3.67 7.35 -3.34 5.7 -3 4 C-2.34 4 -1.68 4 -1 4 C-0.67 2.68 -0.34 1.36 0 0 Z " fill="#1A2229" transform="translate(109,255)"/>
<path d="M0 0 C0.33 0.66 0.66 1.32 1 2 C1.66 2 2.32 2 3 2 C4.7479503 7.24385089 5.19392201 11.47322267 5 17 C4.34 17.33 3.68 17.66 3 18 C2.30546362 15.18906522 1.61908651 12.376575 0.9375 9.5625 C0.63875977 8.35883789 0.63875977 8.35883789 0.33398438 7.13085938 C-0.15507375 5.09740718 -0.58257724 3.04935695 -1 1 C-0.67 0.67 -0.34 0.34 0 0 Z " fill="#DBECF0" transform="translate(248,191)"/>
<path d="M0 0 C0.495 0.66 0.99 1.32 1.5 2 C4.27590187 5.33108225 7.28198402 8.31024726 10.390625 11.328125 C12 13 12 13 12 14 C9.75 14.375 9.75 14.375 7 14 C4.8125 11.125 4.8125 11.125 3 8 C2.34 7.34 1.68 6.68 1 6 C-0.1875 4 -0.1875 4 -1 2 C-0.67 1.34 -0.34 0.68 0 0 Z " fill="#C4D1DA" transform="translate(123,248)"/>
<path d="M0 0 C0.33 0 0.66 0 1 0 C1.31563182 5.26053037 0.66590937 8.44573816 -2 13 C-2.66 13 -3.32 13 -4 13 C-4.33 14.32 -4.66 15.64 -5 17 C-6.31831625 13.04505124 -5.27915298 11.69818482 -3.625 7.9375 C-3.16351563 6.87402344 -2.70203125 5.81054688 -2.2265625 4.71484375 C-1.51096033 3.13094722 -0.77727919 1.55455838 0 0 Z " fill="#CCDBE0" transform="translate(108,184)"/>
<path d="M0 0 C0.66 0.33 1.32 0.66 2 1 C0.59155282 4.21524305 -1.10344786 6.32183868 -3.625 8.75 C-4.57246094 9.67039062 -4.57246094 9.67039062 -5.5390625 10.609375 C-6.02117187 11.06828125 -6.50328125 11.5271875 -7 12 C-7.99 11.34 -8.98 10.68 -10 10 C-8.68 9.67 -7.36 9.34 -6 9 C-5.87625 8.4225 -5.7525 7.845 -5.625 7.25 C-4.97946097 4.92605949 -4.27275111 3.05054346 -3 1 C-2.01 0.67 -1.02 0.34 0 0 Z " fill="#C8D6DD" transform="translate(309,262)"/>
<path d="M0 0 C0.1799928 5.21979128 -0.02905192 9.07262981 -2 14 C-2.99 13.67 -3.98 13.34 -5 13 C-4.719172 11.01926635 -4.42503386 9.04041552 -4.125 7.0625 C-3.96257812 5.96035156 -3.80015625 4.85820312 -3.6328125 3.72265625 C-3.42398437 2.82417969 -3.21515625 1.92570313 -3 1 C-1 0 -1 0 0 0 Z " fill="#CEDAE3" transform="translate(313,223)"/>
<path d="M0 0 C2 1 2 1 2.66796875 2.8125 C3.21970775 6.44748634 2.32754169 9.60816574 1 13 C-1.125 15.5 -1.125 15.5 -3 17 C-2.54775239 11.08507728 -1.8417395 5.64800112 0 0 Z " fill="#C6D5DF" transform="translate(162,195)"/>
<path d="M0 0 C5.28 0 10.56 0 16 0 C16 0.99 16 1.98 16 3 C10.7826087 4.65217391 10.7826087 4.65217391 8 5 C5.75 3.75 5.75 3.75 4 2 C2.68 1.34 1.36 0.68 0 0 Z " fill="#E6F5F8" transform="translate(160,147)"/>
<path d="M0 0 C0.99 0.66 1.98 1.32 3 2 C3 2.66 3 3.32 3 4 C2.34 4 1.68 4 1 4 C0.95875 4.61875 0.9175 5.2375 0.875 5.875 C0.441875 6.926875 0.441875 6.926875 0 8 C-2.8125 9.125 -2.8125 9.125 -6 10 C-7.34413468 10.64461166 -8.68009728 11.30712265 -10 12 C-9.61328125 11.55269531 -9.2265625 11.10539062 -8.828125 10.64453125 C-5.81609925 7.1478974 -2.85678969 3.62592537 0 0 Z " fill="#CAD7DE" transform="translate(300,251)"/>
<path d="M0 0 C0.66 0.99 1.32 1.98 2 3 C2.33 3.33 2.66 3.66 3 4 C3 4.99 3 5.98 3 7 C1.88625 6.95875 0.7725 6.9175 -0.375 6.875 C-4.04366025 6.58878141 -4.04366025 6.58878141 -6 9 C-6 8.34 -6 7.68 -6 7 C-6.66 6.67 -7.32 6.34 -8 6 C-5.36 4.02 -2.72 2.04 0 0 Z " fill="#151D25" transform="translate(221,144)"/>
<path d="M0 0 C0.763125 0.20625 1.52625 0.4125 2.3125 0.625 C1.9825 1.285 1.6525 1.945 1.3125 2.625 C0.6525 2.625 -0.0075 2.625 -0.6875 2.625 C-1.3475 5.595 -2.0075 8.565 -2.6875 11.625 C-3.6775 11.295 -4.6675 10.965 -5.6875 10.625 C-5.3575 9.635 -5.0275 8.645 -4.6875 7.625 C-4.96321139 5.61624558 -5.28985737 3.61321313 -5.6875 1.625 C-2.6875 -0.375 -2.6875 -0.375 0 0 Z " fill="#131D27" transform="translate(158.6875,305.375)"/>
<path d="M0 0 C0 0.66 0 1.32 0 2 C-1.74985354 2.47970123 -3.49988891 2.95873924 -5.25 3.4375 C-6.22453125 3.70433594 -7.1990625 3.97117187 -8.203125 4.24609375 C-10.46372653 4.85544584 -12.72622009 5.44238255 -15 6 C-15.33 5.01 -15.66 4.02 -16 3 C-13.89936424 2.30178583 -11.79434263 1.61675528 -9.6875 0.9375 C-8.51574219 0.55464844 -7.34398437 0.17179687 -6.13671875 -0.22265625 C-3 -1 -3 -1 0 0 Z " fill="#CDDBE2" transform="translate(195,301)"/>
<path d="M0 0 C0.66 0.99 1.32 1.98 2 3 C1.01 3.495 1.01 3.495 0 4 C0.33 4.66 0.66 5.32 1 6 C0.34 6 -0.32 6 -1 6 C-0.938125 6.763125 -0.87625 7.52625 -0.8125 8.3125 C-1 11 -1 11 -2.3125 12.8125 C-4 14 -4 14 -7 14 C-5.53967505 8.68972746 -3.01679014 4.53669968 0 0 Z " fill="#1C272E" transform="translate(126,185)"/>
<path d="M0 0 C0.66 0.33 1.32 0.66 2 1 C2 1.66 2 2.32 2 3 C1.09636719 3.04898438 0.19273437 3.09796875 -0.73828125 3.1484375 C-1.91777344 3.22320312 -3.09726562 3.29796875 -4.3125 3.375 C-6.07013672 3.47941406 -6.07013672 3.47941406 -7.86328125 3.5859375 C-11.15699887 3.78613747 -11.15699887 3.78613747 -14 6 C-17 7 -17 7 -19.1875 6.0625 C-19.785625 5.711875 -20.38375 5.36125 -21 5 C-15.28210522 1.94159116 -10.14068985 1.51925851 -3.6953125 1.2109375 C-1.08363314 1.30022686 -1.08363314 1.30022686 0 0 Z " fill="#E4F2F7" transform="translate(265,126)"/>
<path d="M0 0 C0.66 0.66 1.32 1.32 2 2 C0.625 3.5 0.625 3.5 -1 5 C-1.66 5 -2.32 5 -3 5 C-3 5.66 -3 6.32 -3 7 C-5.64 7.66 -8.28 8.32 -11 9 C-11.33 8.34 -11.66 7.68 -12 7 C-8.04 4.69 -4.08 2.38 0 0 Z " fill="#D3E0E7" transform="translate(207,292)"/>
<path d="M0 0 C0.66 0.33 1.32 0.66 2 1 C0.51131293 5.60139641 -1.74629855 8.50227094 -5 12 C-5.66 12 -6.32 12 -7 12 C-7.33 11.01 -7.66 10.02 -8 9 C-7.34 9 -6.68 9 -6 9 C-5.7525 8.2575 -5.505 7.515 -5.25 6.75 C-3.90852699 3.79875938 -2.39094474 2.15185026 0 0 Z " fill="#D8E6ED" transform="translate(201,156)"/>
<path d="M0 0 C-3.12752591 1.64528614 -6.3053057 2.91702499 -9.625 4.125 C-10.58664063 4.47820312 -11.54828125 4.83140625 -12.5390625 5.1953125 C-15 6 -15 6 -17 6 C-17 5.34 -17 4.68 -17 4 C-11.62036272 -0.96920174 -6.95226015 -1.62541267 0 0 Z " fill="#C9D4DC" transform="translate(247,133)"/>
<path d="M0 0 C1.63001953 0.01353516 1.63001953 0.01353516 3.29296875 0.02734375 C4.12441406 0.03894531 4.95585937 0.05054688 5.8125 0.0625 C6.1425 0.7225 6.4725 1.3825 6.8125 2.0625 C4.36278376 3.28735812 2.67015539 3.22972808 -0.0625 3.25 C-1.35800781 3.27126953 -1.35800781 3.27126953 -2.6796875 3.29296875 C-5.3116288 3.05109252 -6.92730544 2.39233541 -9.1875 1.0625 C-5.90230525 -0.03256492 -3.45086585 -0.03710608 0 0 Z " fill="#E0F1F7" transform="translate(256.1875,287.9375)"/>
<path d="M0 0 C1.98 0 3.96 0 6 0 C5.40716379 3.39192363 4.23256811 5.2107757 1.9375 7.75 C1.38964844 8.36359375 0.84179688 8.9771875 0.27734375 9.609375 C-0.14417969 10.06828125 -0.56570312 10.5271875 -1 11 C-1.33 10.34 -1.66 9.68 -2 9 C-1.06421005 6.64018187 -0.06652192 4.30368736 1 2 C0.01 2.495 0.01 2.495 -1 3 C-0.67 2.01 -0.34 1.02 0 0 Z " fill="#152028" transform="translate(227,265)"/>
<path d="M0 0 C1.79068573 2.6860286 2.66055791 4.6626589 3.625 7.6875 C3.88539063 8.49574219 4.14578125 9.30398438 4.4140625 10.13671875 C4.60742188 10.75160156 4.80078125 11.36648438 5 12 C4.34 12.66 3.68 13.32 3 14 C2.67 13.34 2.34 12.68 2 12 C1.34 12.66 0.68 13.32 0 14 C-0.66 12.68 -1.32 11.36 -2 10 C-1.01 10 -0.02 10 1 10 C0.4740625 8.9171875 0.4740625 8.9171875 -0.0625 7.8125 C-1.10409017 4.6877295 -0.89096572 3.11838004 0 0 Z " fill="#182228" transform="translate(163,249)"/>
<path d="M0 0 C0.33 0 0.66 0 1 0 C1.33 2.97 1.66 5.94 2 9 C1.34 8.67 0.68 8.34 0 8 C-0.99 10.31 -1.98 12.62 -3 15 C-3.99 15 -4.98 15 -6 15 C-5.34 12.69 -4.68 10.38 -4 8 C-3.34 8 -2.68 8 -2 8 C-2 7.34 -2 6.68 -2 6 C-1.34 6 -0.68 6 0 6 C0 4.02 0 2.04 0 0 Z " fill="#E4F4F7" transform="translate(253,228)"/>
<path d="M0 0 C2.53078176 3.13334885 4.51376532 6.24530187 6 10 C5.1875 12.375 5.1875 12.375 4 14 C1 9.375 1 9.375 1 6 C0.34 6 -0.32 6 -1 6 C-0.67 4.02 -0.34 2.04 0 0 Z " fill="#CCDCE4" transform="translate(316,182)"/>
<path d="M0 0 C0.66 0.33 1.32 0.66 2 1 C0.43358249 5.30764815 -1.68336156 9.06171464 -4 13 C-4.98598718 9.93248434 -5.18945913 8.01939626 -4 5 C-2.71937515 3.2925002 -1.3927289 1.61736259 0 0 Z " fill="#D7E7EE" transform="translate(180,162)"/>
<path d="M0 0 C1.83863505 1.11631414 3.67079723 2.24329627 5.5 3.375 C6.5209375 4.00148438 7.541875 4.62796875 8.59375 5.2734375 C9.3878125 5.84320313 10.181875 6.41296875 11 7 C11 7.66 11 8.32 11 9 C9.02 9 7.04 9 5 9 C5 8.34 5 7.68 5 7 C4.360625 6.773125 3.72125 6.54625 3.0625 6.3125 C1 5 1 5 0.37109375 2.41796875 C0.24863281 1.62003906 0.12617188 0.82210938 0 0 Z " fill="#D8E4E9" transform="translate(135,262)"/>
<path d="M0 0 C0.66 0 1.32 0 2 0 C2 1.98 2 3.96 2 6 C2.66 6 3.32 6 4 6 C5.1577506 9.47325181 5.06866652 12.36067448 5 16 C4.34 16.33 3.68 16.66 3 17 C2.49622232 14.73000175 1.99709981 12.45896997 1.5 10.1875 C1.08234375 8.29064453 1.08234375 8.29064453 0.65625 6.35546875 C0 3 0 3 0 0 Z " fill="#D3E1E8" transform="translate(159,229)"/>
<path d="M0 0 C0.33 0.99 0.66 1.98 1 3 C0.31164062 3.67095703 0.31164062 3.67095703 -0.390625 4.35546875 C-3.83552299 7.74970648 -7.07255085 11.13576712 -10 15 C-11 12 -11 12 -10 9 C-9.01 8.67 -8.02 8.34 -7 8 C-6.505 7.34 -6.01 6.68 -5.5 6 C-4 4 -4 4 -1 3 C-0.67 2.01 -0.34 1.02 0 0 Z " fill="#CAD7DC" transform="translate(133,175)"/>
<path d="M0 0 C0.66 0.66 1.32 1.32 2 2 C0.42032193 2.67528223 -1.16391903 3.33989694 -2.75 4 C-4.07257813 4.556875 -4.07257813 4.556875 -5.421875 5.125 C-8 6 -8 6 -12 6 C-12 5.34 -12 4.68 -12 4 C-8.00574046 1.81266739 -4.57756359 0.31210661 0 0 Z " fill="#CDDCE4" transform="translate(195,314)"/>
<path d="M0 0 C-6.06830982 3.42565877 -13.30769504 3.5850196 -20 2 C-20 1.67 -20 1.34 -20 1 C-13.34362157 -0.23839599 -6.7528064 -0.09139136 0 0 Z " fill="#19232C" transform="translate(265,291)"/>
<path d="M0 0 C0.82757813 0.23009766 0.82757813 0.23009766 1.671875 0.46484375 C4.20317383 1.04670271 6.66441972 1.32435445 9.25 1.5625 C10.14203125 1.64628906 11.0340625 1.73007812 11.953125 1.81640625 C12.62859375 1.87699219 13.3040625 1.93757813 14 2 C14 2.66 14 3.32 14 4 C12.41676312 4.027193 10.83338938 4.04648306 9.25 4.0625 C7.92742187 4.07990234 7.92742187 4.07990234 6.578125 4.09765625 C4.2181162 4.00826198 2.25501476 3.66912821 0 3 C0 2.01 0 1.02 0 0 Z " fill="#C6D5DC" transform="translate(156,287)"/>
<path d="M0 0 C0.66 0.33 1.32 0.66 2 1 C1.45337958 4.91744637 0.93419013 8.51845777 -1 12 C-3.578125 13.140625 -3.578125 13.140625 -6 14 C-5.65066406 13.24074219 -5.30132812 12.48148438 -4.94140625 11.69921875 C-4.25884766 10.20841797 -4.25884766 10.20841797 -3.5625 8.6875 C-3.11003906 7.70136719 -2.65757812 6.71523437 -2.19140625 5.69921875 C-0.94268008 2.98434301 -0.94268008 2.98434301 0 0 Z " fill="#CFDCE2" transform="translate(307,237)"/>
<path d="M0 0 C0.99 0.66 1.98 1.32 3 2 C3 2.99 3 3.98 3 5 C2.34 5.66 1.68 6.32 1 7 C-1.625 6.625 -1.625 6.625 -4 6 C-3.67 4.35 -3.34 2.7 -3 1 C-2.01 0.67 -1.02 0.34 0 0 Z " fill="#161A23" transform="translate(157,319)"/>
<path d="M0 0 C2.04174058 0.31201674 4.08338913 0.62463569 6.125 0.9375 C7.83042969 1.19853516 7.83042969 1.19853516 9.5703125 1.46484375 C12.71732669 1.95589266 15.85930783 2.47018719 19 3 C19 3.33 19 3.66 19 4 C16.39472895 4.10792837 13.79391689 4.18724878 11.1875 4.25 C10.44951172 4.28351563 9.71152344 4.31703125 8.95117188 4.3515625 C6.79296875 4.390625 6.79296875 4.390625 3 4 C0.98828125 1.984375 0.98828125 1.984375 0 0 Z " fill="#D2E2E8" transform="translate(157,318)"/>
<path d="M0 0 C0.99 0.33 1.98 0.66 3 1 C3 4.63 3 8.26 3 12 C2.01 12 1.02 12 0 12 C0 8.04 0 4.08 0 0 Z " fill="#DCF0F6" transform="translate(264,212)"/>
<path d="M0 0 C0.66 0.33 1.32 0.66 2 1 C0.515 7.435 0.515 7.435 -1 14 C-1.66 14 -2.32 14 -3 14 C-2.88570603 12.22844346 -2.75816963 10.45773771 -2.625 8.6875 C-2.55539063 7.70136719 -2.48578125 6.71523437 -2.4140625 5.69921875 C-2 3 -2 3 0 0 Z " fill="#CFDEE5" transform="translate(177,194)"/>
<path d="M0 0 C0 0.99 0 1.98 0 3 C-2.73512949 5.6338284 -5.21812121 6.70143062 -9 7 C-9.66 6.34 -10.32 5.68 -11 5 C-7.37 3.35 -3.74 1.7 0 0 Z " fill="#C6D5DB" transform="translate(203,137)"/>
<path d="M0 0 C2.0625 0.4375 2.0625 0.4375 4 1 C4 1.66 4 2.32 4 3 C-2.5 6 -2.5 6 -7 6 C-7.33 5.01 -7.66 4.02 -8 3 C-6.865625 2.690625 -5.73125 2.38125 -4.5625 2.0625 C-1.21224901 1.37075469 -1.21224901 1.37075469 0 0 Z " fill="#DAE6ED" transform="translate(283,281)"/>
<path d="M0 0 C4.79769665 0.47036242 8.01778406 1.26933764 12 4 C12.66 4.33 13.32 4.66 14 5 C13.67 6.32 13.34 7.64 13 9 C12.34 8.67 11.68 8.34 11 8 C11 7.34 11 6.68 11 6 C9.948125 5.5978125 9.948125 5.5978125 8.875 5.1875 C5.8350176 3.9318551 2.9272226 2.49764877 0 1 C0 0.67 0 0.34 0 0 Z " fill="#CFDDE5" transform="translate(277,167)"/>
<path d="M0 0 C0.99 0.33 1.98 0.66 3 1 C3.94921875 3.94140625 3.94921875 3.94140625 4.6875 7.5625 C4.93886719 8.76003906 5.19023438 9.95757812 5.44921875 11.19140625 C5.63097656 12.11824219 5.81273438 13.04507813 6 14 C4.68 13.67 3.36 13.34 2 13 C1.66127487 11.58461283 1.32925376 10.16762037 1 8.75 C0.814375 7.96109375 0.62875 7.1721875 0.4375 6.359375 C0 4 0 4 0 0 Z " fill="#C5D2D8" transform="translate(114,228)"/>
<path d="M0 0 C1.48285242 0.95262034 2.96118201 1.91228405 4.4375 2.875 C5.67306641 3.67550781 5.67306641 3.67550781 6.93359375 4.4921875 C9 6 9 6 10 8 C7.69 8 5.38 8 3 8 C1.58101234 5.35122304 0.68088981 2.91985181 0 0 Z " fill="#D2E0E7" transform="translate(294,159)"/>
<path d="M0 0 C1.63001953 0.01353516 1.63001953 0.01353516 3.29296875 0.02734375 C4.12441406 0.03894531 4.95585937 0.05054688 5.8125 0.0625 C5.4825 1.0525 5.1525 2.0425 4.8125 3.0625 C2.85446493 3.11639087 0.89601091 3.15524217 -1.0625 3.1875 C-2.15304688 3.21070313 -3.24359375 3.23390625 -4.3671875 3.2578125 C-7.1875 3.0625 -7.1875 3.0625 -9.1875 1.0625 C-5.90230525 -0.03256492 -3.45086585 -0.03710608 0 0 Z " fill="#C7D8DB" transform="translate(171.1875,274.9375)"/>
<path d="M0 0 C0.33 0 0.66 0 1 0 C1.61538462 7.26153846 1.61538462 7.26153846 -1.5 11 C-2.325 11.66 -3.15 12.32 -4 13 C-3.50269348 8.02693484 -2.44697666 4.36200187 0 0 Z " fill="#D4E0E6" transform="translate(246,244)"/>
<path d="M0 0 C0.33 0 0.66 0 1 0 C1.33 4.29 1.66 8.58 2 13 C1.01 13.33 0.02 13.66 -1 14 C-1.027193 12.41676312 -1.04648306 10.83338938 -1.0625 9.25 C-1.07410156 8.36828125 -1.08570312 7.4865625 -1.09765625 6.578125 C-1.00826198 4.2181162 -0.66912821 2.25501476 0 0 Z " fill="#CEE0E2" transform="translate(101,202)"/>
<path d="M0 0 C0.66 0.33 1.32 0.66 2 1 C0.55527654 4.80881639 -1.32603071 6.29742886 -5 8 C-5.99 7.67 -6.98 7.34 -8 7 C-5.42215154 4.35247996 -3.08351902 2.05567935 0 0 Z " fill="#D0E0E7" transform="translate(131,159)"/>
<path d="M0 0 C0.66 0.33 1.32 0.66 2 1 C0.5361389 5.39158329 -1.97831338 5.87947433 -6 8 C-6.66 7.01 -7.32 6.02 -8 5 C-6.71475739 4.13619741 -5.42157581 3.28419631 -4.125 2.4375 C-3.04605469 1.72400391 -3.04605469 1.72400391 -1.9453125 0.99609375 C-1.30335938 0.66738281 -0.66140625 0.33867187 0 0 Z " fill="#D2DDE4" transform="translate(141,153)"/>
<path d="M0 0 C0.66 0.33 1.32 0.66 2 1 C2.625 3.0625 2.625 3.0625 3 5 C2.21625 5.45375 1.4325 5.9075 0.625 6.375 C-2.03698031 7.88428742 -2.03698031 7.88428742 -4 10 C-4.33 9.34 -4.66 8.68 -5 8 C-4.00390625 6.0546875 -4.00390625 6.0546875 -2.5625 3.875 C-2.08941406 3.15054688 -1.61632812 2.42609375 -1.12890625 1.6796875 C-0.75636719 1.12539062 -0.38382813 0.57109375 0 0 Z " fill="#161D27" transform="translate(188,178)"/>
<path d="M0 0 C0.99 0.33 1.98 0.66 3 1 C3.66 1 4.32 1 5 1 C5.66 1.33 6.32 1.66 7 2 C6.2575 3.1446875 6.2575 3.1446875 5.5 4.3125 C3.75631692 6.92363751 3.75631692 6.92363751 4 10 C3.34 10 2.68 10 2 10 C1 7 1 7 1 5 C0.34 4.67 -0.32 4.34 -1 4 C-0.67 2.68 -0.34 1.36 0 0 Z " fill="#090E17" transform="translate(222,144)"/>
<path d="M0 0 C-0.50603992 2.16874252 -0.99983813 3.99967627 -2 6 C-6 6 -6 6 -9 5 C-2.87096774 0 -2.87096774 0 0 0 Z " fill="#1A252C" transform="translate(229,298)"/>
<path d="M0 0 C0.99 0.66 1.98 1.32 3 2 C3.4375 4.875 3.4375 4.875 3 8 C1 10.375 1 10.375 -1 12 C-1 9.37165722 -0.80210238 6.91813299 -0.5 4.3125 C-0.4071875 3.50425781 -0.314375 2.69601563 -0.21875 1.86328125 C-0.1465625 1.24839844 -0.074375 0.63351563 0 0 Z " fill="#D3DFE5" transform="translate(267,119)"/>
<path d="M0 0 C0.66 1.32 1.32 2.64 2 4 C2.66 4 3.32 4 4 4 C4.33 3.01 4.66 2.02 5 1 C5 2.32 5 3.64 5 5 C0.545 5.495 0.545 5.495 -4 6 C-2.68 4.02 -1.36 2.04 0 0 Z " fill="#1C2630" transform="translate(250,270)"/>
<path d="M0 0 C0.66 0.33 1.32 0.66 2 1 C0.02 3.97 -1.96 6.94 -4 10 C-4.66 9.67 -5.32 9.34 -6 9 C-6 5 -6 5 -4.6875 3.515625 C-3.125 2.34375 -1.5625 1.171875 0 0 Z " fill="#D1DEE4" transform="translate(252,264)"/>
<path d="M0 0 C2.64752004 2.57784846 4.94432065 4.91648098 7 8 C3.47967572 8 2.5614657 7.29648649 0 5 C0 4.34 0 3.68 0 3 C-0.66 2.67 -1.32 2.34 -2 2 C-1.34 2 -0.68 2 0 2 C0 1.34 0 0.68 0 0 Z " fill="#C3D1D7" transform="translate(188,263)"/>
<path d="M0 0 C1.17539996 0.92652701 2.34010577 1.86663387 3.5 2.8125 C4.1496875 3.33457031 4.799375 3.85664063 5.46875 4.39453125 C7 6 7 6 7 9 C3.2047869 7.50902342 1.38957269 5.24299151 -1 2 C-0.67 1.34 -0.34 0.68 0 0 Z " fill="#C6D2D7" transform="translate(119,265)"/>
<path d="M0 0 C-1.45449401 1.0055761 -2.91372443 2.00430435 -4.375 3 C-5.59316406 3.8353125 -5.59316406 3.8353125 -6.8359375 4.6875 C-9 6 -9 6 -11 6 C-10.75 4.125 -10.75 4.125 -10 2 C-6.91583132 -0.02066224 -3.43831865 -1.71915933 0 0 Z " fill="#17212A" transform="translate(208,292)"/>
<path d="M0 0 C1.2375 -0.04125 2.475 -0.0825 3.75 -0.125 C4.79414063 -0.15980469 4.79414063 -0.15980469 5.859375 -0.1953125 C8 0 8 0 12 2 C7.05 2.33 2.1 2.66 -3 3 C-2.01 2.67 -1.02 2.34 0 2 C0 1.34 0 0.68 0 0 Z " fill="#C7D7DE" transform="translate(176,288)"/>
<path d="M0 0 C0.66 0.99 1.32 1.98 2 3 C-0.97 4.65 -3.94 6.3 -7 8 C-6 4 -6 4 -2.9375 1.75 C-1.968125 1.1725 -0.99875 0.595 0 0 Z " fill="#D3DEE4" transform="translate(296,274)"/>
<path d="M0 0 C1.32 0 2.64 0 4 0 C3.25 7.75 3.25 7.75 1 10 C0.63883954 8.5225254 0.28624952 7.04295325 -0.0625 5.5625 C-0.25972656 4.73878906 -0.45695312 3.91507813 -0.66015625 3.06640625 C-0.82837891 2.04353516 -0.82837891 2.04353516 -1 1 C-0.67 0.67 -0.34 0.34 0 0 Z " fill="#1A242B" transform="translate(323,192)"/>
<path d="M0 0 C-1 3 -1 3 -3 4 C-6 4.1875 -6 4.1875 -9 4 C-9.66 3.34 -10.32 2.68 -11 2 C-7.12315913 0.80712589 -4.08378077 0 0 0 Z " fill="#C9D4DD" transform="translate(159,148)"/>
<path d="M0 0 C0.99 0.33 1.98 0.66 3 1 C0.19195732 3.96404505 -2.18315774 6.44499019 -6 8 C-6 5 -6 5 -4.625 3.375 C-3 2 -3 2 -1 1 C-0.67 0.67 -0.34 0.34 0 0 Z " fill="#141E26" transform="translate(211,128)"/>
<path d="M0 0 C-1.32 1.65 -2.64 3.3 -4 5 C-6.97 4.505 -6.97 4.505 -10 4 C-6.87839899 0.56623888 -4.64008112 -1.54669371 0 0 Z " fill="#182228" transform="translate(212,310)"/>
<path d="M0 0 C3.67230705 3.07999946 4.56802365 5.2482602 5 10 C4.34 10 3.68 10 3 10 C-0.22265625 4.82421875 -0.22265625 4.82421875 -1 3 C-0.67 2.01 -0.34 1.02 0 0 Z " fill="#DDEBEF" transform="translate(118,241)"/>
<path d="M0 0 C2.66735273 2.48952921 4.55746343 4.63408134 6 8 C3.125 7.75 3.125 7.75 0 7 C-1.375 4.9375 -1.375 4.9375 -2 3 C-1.34 2.01 -0.68 1.02 0 0 Z " fill="#1A232C" transform="translate(298,184)"/>
<path d="M0 0 C3.63 0 7.26 0 11 0 C11.33 0.66 11.66 1.32 12 2 C5.565 2.495 5.565 2.495 -1 3 C-0.67 2.01 -0.34 1.02 0 0 Z " fill="#DFF0F7" transform="translate(247,117)"/>
<path d="M0 0 C0.99 0 1.98 0 3 0 C2.67 3.96 2.34 7.92 2 12 C-0.35333796 7.29332409 -0.17102038 5.1306114 0 0 Z " fill="#CCDAE3" transform="translate(264,224)"/>
<path d="M0 0 C1.73662334 3.22515763 2.8905928 6.51329166 4 10 C3.01 10.33 2.02 10.66 1 11 C0.63890458 9.35567294 0.28629924 7.7094792 -0.0625 6.0625 C-0.25972656 5.14597656 -0.45695312 4.22945312 -0.66015625 3.28515625 C-0.77230469 2.53105469 -0.88445312 1.77695313 -1 1 C-0.67 0.67 -0.34 0.34 0 0 Z " fill="#D3DFE6" transform="translate(309,200)"/>
<path d="M0 0 C2.475 0.99 2.475 0.99 5 2 C4.67 3.32 4.34 4.64 4 6 C2.68 4.02 1.36 2.04 0 0 Z M-1 1 C-0.34 2.32 0.32 3.64 1 5 C0.01 5.33 -0.98 5.66 -2 6 C-1.67 4.35 -1.34 2.7 -1 1 Z " fill="#171D25" transform="translate(244,194)"/>
<path d="M0 0 C0.66 0.33 1.32 0.66 2 1 C2 1.66 2 2.32 2 3 C1.34 3 0.68 3 0 3 C-0.33 3.99 -0.66 4.98 -1 6 C-1.66 6 -2.32 6 -3 6 C-3.33 7.32 -3.66 8.64 -4 10 C-4.25 7.25 -4.25 7.25 -4 4 C-2 1.625 -2 1.625 0 0 Z " fill="#C0CBD3" transform="translate(229,151)"/>
<path d="M0 0 C0.33 0 0.66 0 1 0 C1.33 3.96 1.66 7.92 2 12 C1.01 12 0.02 12 -1 12 C-0.67 8.04 -0.34 4.08 0 0 Z " fill="#DDEEF7" transform="translate(173,202)"/>
<path d="M0 0 C1.875 0.25 1.875 0.25 4 1 C5.3125 2.8125 5.3125 2.8125 6 5 C5.625 7.25 5.625 7.25 5 9 C3.05731159 6.08596738 1.53604696 3.14191424 0 0 Z " fill="#CFDAE0" transform="translate(242,182)"/>
<path d="M0 0 C0.66 0.33 1.32 0.66 2 1 C0.8141763 4.37503669 -0.27573689 6.64722731 -3 9 C-3 4.72290301 -2.29379749 3.44069624 0 0 Z " fill="#C6D5D8" transform="translate(174,170)"/>
<path d="M0 0 C0.66 0.66 1.32 1.32 2 2 C-0.46153846 6.8 -0.46153846 6.8 -3.1875 7.8125 C-3.785625 7.874375 -4.38375 7.93625 -5 8 C-4.45773019 4.20411134 -2.79872437 2.52788007 0 0 Z " fill="#19252D" transform="translate(202,160)"/>
<path d="M0 0 C0.66 0.33 1.32 0.66 2 1 C0.68 1.99 -0.64 2.98 -2 4 C-1.67 5.32 -1.34 6.64 -1 8 C-2.65 7.67 -4.3 7.34 -6 7 C-5.67 5.68 -5.34 4.36 -5 3 C-4.34 3 -3.68 3 -3 3 C-3 2.34 -3 1.68 -3 1 C-2.01 0.67 -1.02 0.34 0 0 Z " fill="#E6F2F6" transform="translate(207,136)"/>
<path d="M0 0 C0.99 0.33 1.98 0.66 3 1 C1.68 2.65 0.36 4.3 -1 6 C-2.32 5.34 -3.64 4.68 -5 4 C-2.6875 1.9375 -2.6875 1.9375 0 0 Z " fill="#C8D5DC" transform="translate(213,287)"/>
<path d="M0 0 C0 0.66 0 1.32 0 2 C-4.38461538 5 -4.38461538 5 -7 5 C-7 4.34 -7 3.68 -7 3 C-7.99 2.67 -8.98 2.34 -10 2 C-8.7090864 1.66376204 -7.41723903 1.33110751 -6.125 1 C-5.40570313 0.814375 -4.68640625 0.62875 -3.9453125 0.4375 C-2 0 -2 0 0 0 Z " fill="#C2D1D8" transform="translate(274,272)"/>
<path d="M0 0 C0.66 0.33 1.32 0.66 2 1 C0.68 3.31 -0.64 5.62 -2 8 C-2.66 7.67 -3.32 7.34 -4 7 C-4.625 3.9375 -4.625 3.9375 -5 1 C-4.01 1.33 -3.02 1.66 -2 2 C-1.34 1.34 -0.68 0.68 0 0 Z " fill="#1A2229" transform="translate(238,256)"/>
<path d="M0 0 C0 0.66 0 1.32 0 2 C-2.625 3.625 -2.625 3.625 -6 5 C-9.375 4.1875 -9.375 4.1875 -12 3 C-12 2.67 -12 2.34 -12 2 C-10.56342755 1.66269158 -9.12569907 1.33030409 -7.6875 1 C-6.88699219 0.814375 -6.08648437 0.62875 -5.26171875 0.4375 C-3 0 -3 0 0 0 Z " fill="#C7D3DC" transform="translate(191,143)"/>
<path d="M0 0 C1.32 0 2.64 0 4 0 C6 3 6 3 6 6 C6.66 6.33 7.32 6.66 8 7 C6.25 6.875 6.25 6.875 4 6 C1.75 2.9375 1.75 2.9375 0 0 Z " fill="#D0E4E7" transform="translate(174,270)"/>
<path d="M0 0 C0.33 0.99 0.66 1.98 1 3 C-0.65 3.66 -2.3 4.32 -4 5 C-4 5.66 -4 6.32 -4 7 C-5.32 6.34 -6.64 5.68 -8 5 C-4.04 2.525 -4.04 2.525 0 0 Z " fill="#D0DEE4" transform="translate(289,263)"/>
<path d="M0 0 C0.66 0 1.32 0 2 0 C3.25664978 2.90600261 4 4.79604584 4 8 C3.01 8 2.02 8 1 8 C0.67 5.36 0.34 2.72 0 0 Z " fill="#1A242A" transform="translate(101,240)"/>
<path d="M0 0 C1.2065625 0.0309375 1.2065625 0.0309375 2.4375 0.0625 C2.1075 0.7225 1.7775 1.3825 1.4375 2.0625 C0.7775 1.7325 0.1175 1.4025 -0.5625 1.0625 C-0.21463292 3.03786745 -0.21463292 3.03786745 0.4375 5.0625 C1.0975 5.3925 1.7575 5.7225 2.4375 6.0625 C1.1175 6.0625 -0.2025 6.0625 -1.5625 6.0625 C-2.2225 4.4125 -2.8825 2.7625 -3.5625 1.0625 C-2.5625 0.0625 -2.5625 0.0625 0 0 Z " fill="#DCF0F7" transform="translate(247.5625,159.9375)"/>
<path d="M0 0 C3 1 3 1 4 3 C1.36 3.66 -1.28 4.32 -4 5 C-2.25 1.125 -2.25 1.125 0 0 Z " fill="#CFDBE2" transform="translate(234,292)"/>
<path d="M0 0 C0.66 0 1.32 0 2 0 C4 2 4 2 6 5 C5.34 6.32 4.68 7.64 4 9 C2.68 6.03 1.36 3.06 0 0 Z " fill="#CDDBE1" transform="translate(165,254)"/>
<path d="M0 0 C0.66 0 1.32 0 2 0 C0.84414715 3.91211733 -0.35534962 6.8745041 -3 10 C-2.25 3.375 -2.25 3.375 0 0 Z " fill="#CAD8DE" transform="translate(319,246)"/>
<path d="M0 0 C0.66 0.66 1.32 1.32 2 2 C1.01 4.31 0.02 6.62 -1 9 C-3 6 -3 6 -2.75 3.9375 C-2 2 -2 2 0 0 Z " fill="#D5E4EB" transform="translate(120,191)"/>
<path d="M0 0 C0.66 0 1.32 0 2 0 C2.66 2.31 3.32 4.62 4 7 C3.01 7 2.02 7 1 7 C0.34 5.02 -0.32 3.04 -1 1 C-0.67 0.67 -0.34 0.34 0 0 Z " fill="#DBE8F0" transform="translate(240,174)"/>
<path d="M0 0 C0.78375 0.04125 1.5675 0.0825 2.375 0.125 C2.045 1.115 1.715 2.105 1.375 3.125 C0.715 3.125 0.055 3.125 -0.625 3.125 C-0.955 4.115 -1.285 5.105 -1.625 6.125 C-1.955 5.135 -2.285 4.145 -2.625 3.125 C-3.285 2.795 -3.945 2.465 -4.625 2.125 C-2.625 0.125 -2.625 0.125 0 0 Z " fill="#121C25" transform="translate(198.625,166.875)"/>
<path d="M0 0 C0.99 0.99 1.98 1.98 3 3 C2.34 3.66 1.68 4.32 1 5 C0.34 4.67 -0.32 4.34 -1 4 C-1.33 4.99 -1.66 5.98 -2 7 C-2.66 6.67 -3.32 6.34 -4 6 C-2.25 1.125 -2.25 1.125 0 0 Z " fill="#071019" transform="translate(205,159)"/>
<path d="M0 0 C0.66 0.66 1.32 1.32 2 2 C-1.96 3.98 -1.96 3.98 -6 6 C-6 4.68 -6 3.36 -6 2 C-4.02 1.34 -2.04 0.68 0 0 Z " fill="#CDDCE2" transform="translate(226,139)"/>
<path d="M0 0 C3.3 0 6.6 0 10 0 C10 0.66 10 1.32 10 2 C8.02 2.33 6.04 2.66 4 3 C4 2.34 4 1.68 4 1 C2.68 0.67 1.36 0.34 0 0 Z " fill="#DDEEF5" transform="translate(166,288)"/>
<path d="M0 0 C4.75 0.75 4.75 0.75 7 3 C5.02 3.33 3.04 3.66 1 4 C0.67 2.68 0.34 1.36 0 0 Z M0 4 C0.33 4.66 0.66 5.32 1 6 C0.34 5.67 -0.32 5.34 -1 5 C-0.67 4.67 -0.34 4.34 0 4 Z " fill="#161F26" transform="translate(131,280)"/>
<path d="M0 0 C2.64 0 5.28 0 8 0 C8 0.66 8 1.32 8 2 C5.36 2.33 2.72 2.66 0 3 C0 2.01 0 1.02 0 0 Z " fill="#DEEDF0" transform="translate(259,275)"/>
<path d="M0 0 C0.99 0.33 1.98 0.66 3 1 C1.68 3.31 0.36 5.62 -1 8 C-1.66 7.01 -2.32 6.02 -3 5 C-2.01 3.35 -1.02 1.7 0 0 Z " fill="#CFDFE3" transform="translate(313,255)"/>
<path d="M0 0 C0.66 0 1.32 0 2 0 C1.01 2.97 0.02 5.94 -1 9 C-1.66 8.67 -2.32 8.34 -3 8 C-2.37240135 5.07120629 -1.41377341 2.63904371 0 0 Z " fill="#D4E1E7" transform="translate(261,244)"/>
<path d="M0 0 C3 2 3 2 3.51171875 3.9453125 C3.67447917 5.96354167 3.83723958 7.98177083 4 10 C3.34 10 2.68 10 2 10 C1.34 6.7 0.68 3.4 0 0 Z " fill="#CDD9E0" transform="translate(101,232)"/>
<path d="M0 0 C2.76223278 2.76223278 2.57856291 5.20706617 3 9 C2.67 8.34 2.34 7.68 2 7 C1.34 7 0.68 7 0 7 C-1.125 2.25 -1.125 2.25 0 0 Z " fill="#BECCD3" transform="translate(261,186)"/>
<path d="M0 0 C-2.2747813 1.38111722 -3.50171361 2.05694702 -6.1875 1.75 C-8 1 -8 1 -9 -1 C-5.79937313 -2.60031344 -3.27728194 -1.03173691 0 0 Z " fill="#D6E5E7" transform="translate(300,177)"/>
<path d="M0 0 C0.66 0.33 1.32 0.66 2 1 C2.34342449 2.33076989 2.67619874 3.66431979 3 5 C3.66 5.66 4.32 6.32 5 7 C3.35 6.67 1.7 6.34 0 6 C-0.38218767 4.34385343 -0.71395102 2.67542976 -1 1 C-0.67 0.67 -0.34 0.34 0 0 Z " fill="#DEE7ED" transform="translate(227,158)"/>
<path d="M0 0 C1.65 0 3.3 0 5 0 C5 0.99 5 1.98 5 3 C6.32 3.33 7.64 3.66 9 4 C8.01 4.495 8.01 4.495 7 5 C4.64018187 4.06421005 2.30368736 3.06652192 0 2 C0 1.34 0 0.68 0 0 Z " fill="#E5F4FA" transform="translate(273,151)"/>
<path d="M0 0 C1.32 1.65 2.64 3.3 4 5 C3.34 5.66 2.68 6.32 2 7 C0.68 5.35 -0.64 3.7 -2 2 C-1.34 1.34 -0.68 0.68 0 0 Z " fill="#162128" transform="translate(196,267)"/>
<path d="M0 0 C4 4.625 4 4.625 4 8 C1.01284458 6.00856305 0.21258505 5.23356015 -1 2 C-0.67 1.34 -0.34 0.68 0 0 Z " fill="#CFDDE2" transform="translate(123,248)"/>
<path d="M0 0 C2.2477975 2.05233685 3.0022242 3.00667261 4 6 C2.33333333 6 0.66666667 6 -1 6 C-0.67 4.02 -0.34 2.04 0 0 Z " fill="#20262F" transform="translate(238,176)"/>
<path d="M0 0 C2.97 0 5.94 0 9 0 C9.33 0.66 9.66 1.32 10 2 C7.25 2.6875 7.25 2.6875 4 3 C1.625 1.5625 1.625 1.5625 0 0 Z " fill="#C1D2D5" transform="translate(160,147)"/>
<path d="M0 0 C0.66 0.33 1.32 0.66 2 1 C1.34 2.65 0.68 4.3 0 6 C-2 5 -2 5 -4 2 C-2.125 0.9375 -2.125 0.9375 0 0 Z " fill="#191F27" transform="translate(226,141)"/>
<path d="M0 0 C0.66 0.33 1.32 0.66 2 1 C2 1.99 2 2.98 2 4 C0.35 4.66 -1.3 5.32 -3 6 C-3 4.68 -3 3.36 -3 2 C-2.01 1.34 -1.02 0.68 0 0 Z " fill="#131F25" transform="translate(224,120)"/>
<path d="M0 0 C-2.38573379 1.89213369 -4.07175348 3.02391783 -7 4 C-6.6875 2.0625 -6.6875 2.0625 -6 0 C-3 -1 -3 -1 0 0 Z " fill="#D9E4EB" transform="translate(229,297)"/>
<path d="M0 0 C-0.66 0.66 -1.32 1.32 -2 2 C-5.625 1.625 -5.625 1.625 -9 1 C-5.64919071 -1.10976881 -3.77897651 -1.0497157 0 0 Z " fill="#D8E9F1" transform="translate(263,289)"/>
<path d="M0 0 C1.32 0.66 2.64 1.32 4 2 C1.525 3.485 1.525 3.485 -1 5 C-1 1 -1 1 0 0 Z " fill="#1B232C" transform="translate(138,283)"/>
<path d="M0 0 C3.71599191 -0.20086443 4.77208445 -0.1519437 8 2 C7.67 2.99 7.34 3.98 7 5 C3.535 3.02 3.535 3.02 0 1 C0 0.67 0 0.34 0 0 Z " fill="#CAD7DA" transform="translate(128,276)"/>
<path d="M0 0 C0 3 0 3 -2.5 5.6875 C-3.325 6.450625 -4.15 7.21375 -5 8 C-5 6.68 -5 5.36 -5 4 C-2.5 1.75 -2.5 1.75 0 0 Z " fill="#E2ECF4" transform="translate(229,274)"/>
<path d="M0 0 C0.66 0.33 1.32 0.66 2 1 C1.67 2.65 1.34 4.3 1 6 C0.01 6 -0.98 6 -2 6 C-1.125 1.125 -1.125 1.125 0 0 Z " fill="#1A272C" transform="translate(324,239)"/>
<path d="M0 0 C0.99 0.33 1.98 0.66 3 1 C2.67 2.65 2.34 4.3 2 6 C1.01 6 0.02 6 -1 6 C-0.67 4.02 -0.34 2.04 0 0 Z " fill="#C7D9E0" transform="translate(248,237)"/>
<path d="M0 0 C0.33 0.66 0.66 1.32 1 2 C1.66 2 2.32 2 3 2 C2.67 4.31 2.34 6.62 2 9 C0.59306362 6.37371875 -0.49157276 3.94887797 -1 1 C-0.67 0.67 -0.34 0.34 0 0 Z " fill="#CFE3E8" transform="translate(248,191)"/>
<path d="M0 0 C0.93423645 3.01031744 1.04449911 3.86650268 0 7 C-2.0625 7.6875 -2.0625 7.6875 -4 8 C-2.87548273 5.0280615 -1.77706209 2.66559313 0 0 Z " fill="#E5F2F6" transform="translate(122,185)"/>
<path d="M0 0 C0.66 0.66 1.32 1.32 2 2 C1.01 3.98 0.02 5.96 -1 8 C-2.0625 6.125 -2.0625 6.125 -3 4 C-2.67 3.34 -2.34 2.68 -2 2 C-1.34 2 -0.68 2 0 2 C0 1.34 0 0.68 0 0 Z " fill="#CED8E0" transform="translate(183,182)"/>
<path d="M0 0 C2.15377564 2.62198774 3.40072174 4.64404172 4 8 C2.68 7.67 1.36 7.34 0 7 C0 4.69 0 2.38 0 0 Z " fill="#C7D6DD" transform="translate(256,175)"/>
<path d="M0 0 C0.33 0.66 0.66 1.32 1 2 C0.0625 4.625 0.0625 4.625 -1 7 C-1.99 7 -2.98 7 -4 7 C-1.125 1.125 -1.125 1.125 0 0 Z " fill="#C2D0DB" transform="translate(114,175)"/>
<path d="M0 0 C1.65 1.65 3.3 3.3 5 5 C4.01 5.33 3.02 5.66 2 6 C1.01 5.34 0.02 4.68 -1 4 C-0.67 2.68 -0.34 1.36 0 0 Z " fill="#CBD9DF" transform="translate(308,171)"/>
<path d="M0 0 C2.91517292 1.07401108 4.77810176 1.77810176 7 4 C6.67 5.32 6.34 6.64 6 8 C4.02 5.36 2.04 2.72 0 0 Z " fill="#D0D9E0" transform="translate(229,165)"/>
<path d="M0 0 C2.97 0.495 2.97 0.495 6 1 C5.67 1.66 5.34 2.32 5 3 C2.5625 3.75 2.5625 3.75 0 4 C-0.66 3.34 -1.32 2.68 -2 2 C-1.34 2 -0.68 2 0 2 C0 1.34 0 0.68 0 0 Z " fill="#1C2029" transform="translate(187,140)"/>
</svg>
